
<svg xmlns="http://www.w3.org/2000/svg" width="48" height="32" viewBox="0 0 28 22" fill="none" viewBox="0 0 43.72 30.51"><g id="Camada_2" data-name="Camada 2"><g id="Emblems"><path d="M7.25,30.18l-.78-.78a.38.38,0,0,1,0-.53L35.06.34a.38.38,0,0,1,.53,0l.78.78a.38.38,0,0,1,0,.53L7.77,30.16A.37.37,0,0,1,7.25,30.18Z" style="fill:#fff"/><path d="M7.54,30.5a.56.56,0,0,1-.45-.16l-.78-.78a.6.6,0,0,1,0-.85L34.9.18A.62.62,0,0,1,35.3,0a.58.58,0,0,1,.45.17l.78.78a.55.55,0,0,1,.16.43.59.59,0,0,1-.18.42L7.93,30.32A.53.53,0,0,1,7.54,30.5ZM35.33.45a.22.22,0,0,0-.11,0L6.64,29a.15.15,0,0,0,0,.21l.78.78a.14.14,0,0,0,.1,0,.14.14,0,0,0,.1-.05L36.19,1.48a.18.18,0,0,0,.05-.12.12.12,0,0,0,0-.09L35.43.49A.13.13,0,0,0,35.33.45Z" style="fill:#414042"/><path d="M34.78.65l1,1a1.82,1.82,0,0,1,.36.51,2.11,2.11,0,0,0,.54.74,20.48,20.48,0,0,0,6.72,3.35c-1.88,4.57-8.56,7.73-13.31,6l1.77-1.68a4.24,4.24,0,0,0,4.19-1.45c1-1,1-2.86-.43-4.31a2.67,2.67,0,0,0-1.27-.7,1.77,1.77,0,0,1-.81-.46l-.89-.89a.68.68,0,0,1,0-.95L33.83.65A.68.68,0,0,1,34.78.65Z" style="fill:#fff"/><path d="M42.75,6.1c-2.09,3.88-7.47,6.62-12,5.51l-.66.63c4.75,1.77,11.43-1.39,13.31-6Z" style="fill:#414042"/><path d="M33.8,1.74c.24-.28,1-.81,1.32-.63L34.66.65a.64.64,0,0,0-.9,0l-1.11,1.1a.63.63,0,0,0,0,.9l.52.53h0A1.64,1.64,0,0,1,33.8,1.74Z" style="fill:#414042"/><path d="M33.66,13a8.75,8.75,0,0,1-3.63-.5l-.34-.12,2.12-2,.12,0a3.72,3.72,0,0,0,1.13.12A4.5,4.5,0,0,0,35.9,9c1-1,.85-2.7-.43-4a2.43,2.43,0,0,0-1.16-.64,1.89,1.89,0,0,1-.92-.52l-.89-.89a.94.94,0,0,1-.26-.64.93.93,0,0,1,.27-.63L33.67.49a.84.84,0,0,1,.57-.26.92.92,0,0,1,.7.26l1,1a1.91,1.91,0,0,1,.39.58,1.84,1.84,0,0,0,.49.65,19.9,19.9,0,0,0,6.63,3.31l.25.06-.1.24c-1.43,3.49-5.71,6.32-10,6.59Zm-3.13-.8a8.48,8.48,0,0,0,3.1.34h0c4-.25,8-2.83,9.47-6.06A20.61,20.61,0,0,1,36.54,3.1a2.41,2.41,0,0,1-.6-.82,1.47,1.47,0,0,0-.31-.44l-1-1a.44.44,0,0,0-.62,0L32.83,2a.4.4,0,0,0-.13.31.44.44,0,0,0,.13.32l.88.89a1.46,1.46,0,0,0,.7.4,2.91,2.91,0,0,1,1.38.76c1.44,1.45,1.63,3.44.43,4.63a4.91,4.91,0,0,1-3.13,1.64h0a4.14,4.14,0,0,1-1.15-.1Z" style="fill:#414042"/><path d="M36.15,2.19c0,.06-.24,0-.21.1s-.16.71-.52,1.09a1.53,1.53,0,0,1-.92.52c-.13,0-.19.19-.14.2a2.87,2.87,0,0,1,.91.4l1,1.17c0-.1.17-.13.13-.21a.81.81,0,0,1,.48-1.1,4.43,4.43,0,0,1,2.58.58,22.12,22.12,0,0,1-2.11-1.5A6.75,6.75,0,0,1,36.15,2.19Z" style="fill:#414042"/><path d="M33.24,3.84l-1,1L29.64,7.56c-1.09,1.1-2.35,2.4-3.72,3.78l-4.28,4.31-6,6c-1.37,1.37-2.68,2.62-3.78,3.71s-2.05,2-2.7,2.62l-1,1,1-1,2.62-2.69c1.09-1.1,2.35-2.4,3.72-3.78l6-6,4.32-4.28c1.38-1.37,2.68-2.63,3.78-3.71s2.05-2,2.7-2.62Z" style="fill:#414042"/><path d="M38.59,5.09l1.3.7c.9.48,1.63.8,1.06,1.48a12.37,12.37,0,0,1-4.62,3.25,16.22,16.22,0,0,0,3.28-2.65C40.77,6.59,38.59,5.09,38.59,5.09Z" style="fill:#414042"/><path d="M36.47,30.18l.79-.78a.38.38,0,0,0,0-.53L8.66.34a.37.37,0,0,0-.52,0l-.78.78a.38.38,0,0,0,0,.53L36,30.16A.37.37,0,0,0,36.47,30.18Z" style="fill:#fff"/><path d="M36.19,30.5a.55.55,0,0,0,.44-.16l.79-.78a.61.61,0,0,0,0-.85L8.82.18A.59.59,0,0,0,8.43,0,.57.57,0,0,0,8,.17L7.2,1A.53.53,0,0,0,7,1.38a.64.64,0,0,0,.18.42L35.79,30.32A.57.57,0,0,0,36.19,30.5ZM8.4.45a.19.19,0,0,1,.1,0L37.08,29a.16.16,0,0,1,0,.21l-.79.78a.12.12,0,0,1-.09,0,.16.16,0,0,1-.11-.05L7.53,1.48a.18.18,0,0,1,0-.12.1.1,0,0,1,0-.09L8.3.49A.11.11,0,0,1,8.4.45Z" style="fill:#414042"/><path d="M9,.65l-1,1a1.6,1.6,0,0,0-.35.51A2.16,2.16,0,0,1,7,2.93,20.25,20.25,0,0,1,.31,6.28c1.88,4.57,8.56,7.73,13.31,6l-1.77-1.68A4.24,4.24,0,0,1,7.66,9.11c-1-1-1-2.86.43-4.31a2.67,2.67,0,0,1,1.27-.7,1.86,1.86,0,0,0,.82-.46l.88-.89a.67.67,0,0,0,0-.95L9.9.65A.68.68,0,0,0,9,.65Z" style="fill:#fff"/><path d="M1,6.1C3.06,10,8.45,12.72,13,11.61l.66.63C8.87,14,2.19,10.85.31,6.28Z" style="fill:#414042"/><path d="M9.92,1.74C9.68,1.46,9,.93,8.6,1.11L9.06.65a.64.64,0,0,1,.9,0l1.11,1.1a.63.63,0,0,1,0,.9l-.52.53h0C10.71,2.51,10.17,2,9.92,1.74Z" style="fill:#414042"/><path d="M10.07,13a8.8,8.8,0,0,0,3.63-.5l.34-.12-2.12-2-.12,0a3.79,3.79,0,0,1-1.14.12A4.53,4.53,0,0,1,7.82,9c-1-1-.85-2.7.43-4a2.41,2.41,0,0,1,1.17-.64,1.94,1.94,0,0,0,.92-.52l.88-.89a.9.9,0,0,0,.26-.64.89.89,0,0,0-.27-.63L10.05.49A.82.82,0,0,0,9.48.23a.88.88,0,0,0-.69.26l-1,1a1.94,1.94,0,0,0-.4.58,1.92,1.92,0,0,1-.48.65A20.12,20.12,0,0,1,.26,6.06L0,6.12l.1.24c1.43,3.49,5.72,6.32,10,6.59Zm3.12-.8a8.4,8.4,0,0,1-3.09.34h0c-4-.25-8-2.83-9.48-6.06A20.61,20.61,0,0,0,7.18,3.1a2.41,2.41,0,0,0,.6-.82,1.67,1.67,0,0,1,.31-.44l1-1a.45.45,0,0,1,.63,0L10.89,2a.41.41,0,0,1,.14.31.48.48,0,0,1-.13.32L10,3.48a1.42,1.42,0,0,1-.7.4,2.91,2.91,0,0,0-1.38.76C6.49,6.09,6.31,8.08,7.5,9.27a4.91,4.91,0,0,0,3.13,1.64h0a4.14,4.14,0,0,0,1.15-.1Z" style="fill:#414042"/><path d="M7.58,2.19c0,.06.23,0,.2.1s.16.71.53,1.09a1.49,1.49,0,0,0,.91.52c.14,0,.19.19.14.2a2.87,2.87,0,0,0-.91.4l-1,1.17c0-.1-.16-.13-.13-.21a.81.81,0,0,0-.48-1.1,4.44,4.44,0,0,0-2.58.58,20.93,20.93,0,0,0,2.11-1.5A7.4,7.4,0,0,0,7.58,2.19Z" style="fill:#414042"/><path d="M10.48,3.84l1,1c.63.64,1.52,1.58,2.61,2.69s2.35,2.4,3.72,3.78l4.29,4.31,6,6c1.38,1.37,2.68,2.62,3.79,3.71s2,2,2.69,2.62l1,1-1-1L32,25.21,28.3,21.43l-6-6L18,11.15c-1.37-1.37-2.67-2.63-3.78-3.71L11.51,4.82Z" style="fill:#414042"/><path d="M5.13,5.09l-1.3.7c-.89.48-1.63.8-1.06,1.48a12.46,12.46,0,0,0,4.62,3.25A16.22,16.22,0,0,1,4.11,7.87C3,6.59,5.13,5.09,5.13,5.09Z" style="fill:#414042"/></g></g></svg>