<svg xmlns="http://www.w3.org/2000/svg" viewBox="0 0 381.2 361.73"><g id="Camada_2" data-name="Camada 2"><g id="Emblems"><path d="M380.64,322.94,373,332.77a2.7,2.7,0,0,1-3.77.48l-9-7A26.9,26.9,0,0,1,349.89,307h0a26.92,26.92,0,0,1,21.27,5.23l9,7A2.69,2.69,0,0,1,380.64,322.94Z" style="fill:#404041"/><polygon points="366.24 316.9 352.91 306.52 354.24 304.81 366.24 316.9" style="fill:#fff"/><rect x="325.21" y="242.9" width="4.33" height="92.97" transform="translate(-102.08 369.91) rotate(-52.1)" style="fill:#404041"/><path d="M352.38,341.75l-7.33,6.53a2.69,2.69,0,0,1-3.79-.22l-6.2-7a22.94,22.94,0,0,1-5.68-17.78h0a22.93,22.93,0,0,1,17,7.68l6.2,6.95A2.7,2.7,0,0,1,352.38,341.75Z" style="fill:#404041"/><polygon points="333.18 321.07 341.26 333.43 331.56 322.51 333.18 321.07" style="fill:#fff"/><rect x="304.92" y="251.71" width="4.34" height="92.97" transform="translate(-120.54 279.23) rotate(-41.62)" style="fill:#404041"/><path d="M266.64,33.87l-2.16-6A2.21,2.21,0,0,0,263,26.54l-7.4-2a2.16,2.16,0,0,0-2.35.91,2.23,2.23,0,0,0,.1,2.55,6.45,6.45,0,0,1,.86,4.06,4,4,0,0,0,1.1,3c1.48,1.55,4,1.76,6.45,1.76.75,0,1.52,0,2.27-.05h.64a2.17,2.17,0,0,0,2-2.91Z" style="fill:#404041"/><path d="M219,9.33c12.88-2.22,40.78-5.87,45.66,10.14,18.18,1.76,17,8.19,41.85,8.87-15.94,9.2-28.85,5.29-41.85,6.27-8.57-7.5-32.59-5.19-45.66-1Z" style="fill:#fff"/><path d="M280.79,36.8c-1.9,0-3.79,0-5.65-.1-3.69-.1-7.45-.15-10.37.07a2.14,2.14,0,0,1-1.59-.53c-3.22-2.81-9.72-4.36-18.32-4.36a89.67,89.67,0,0,0-25.26,3.76,2.16,2.16,0,0,1-2.82-2.06V9.33a2.16,2.16,0,0,1,1.8-2.13,121.93,121.93,0,0,1,20.56-2c14.7,0,23.79,4.14,27.06,12.3a56.28,56.28,0,0,1,15.66,4.08c5.41,2.09,11,4.26,24.65,4.64a2.16,2.16,0,0,1,1,4C297.52,36,288.76,36.8,280.79,36.8Zm-11-4.53c1.82,0,3.64,0,5.48.1,7,.18,14.25.48,22.53-2.41a59.3,59.3,0,0,1-17.48-4.38,52.31,52.31,0,0,0-15.9-3.95,2.18,2.18,0,0,1-1.87-1.52c-2.14-7-10-10.61-23.39-10.61a112.3,112.3,0,0,0-18,1.67V30.68a96.57,96.57,0,0,1,23.74-3.14c6.52,0,15.21.86,20.45,4.85C266.68,32.31,268.14,32.27,269.77,32.27Z" style="fill:#404041"/><polygon points="266.77 19.47 264.61 31.45 262.44 19.47 266.77 19.47" style="fill:#404041"/><path d="M70.78,264.3c0-20.2,18.94-21,18.43-41.1,0-5.73,12.67-10.35,15.8-.86,4.25,12.88,20.38,24.08,40,30.09,20.68,6.35,49.55,8.91,94.71,2.86,37.23-1.57-19.81,30.21-21.46,31.31s-123.13,4-123.13,4Z" style="fill:#404041"/><path d="M95.11,291.72a1.11,1.11,0,0,1-.8-.35L70,265a1.11,1.11,0,0,1-.29-.74c0-10.46,4.89-15.93,9.61-21.23s9.07-10.18,8.83-19.84c0-4.26,5.08-7.43,9.62-7.43A8.4,8.4,0,0,1,106,222c3.93,11.9,19,23.17,39.27,29.4,13.69,4.2,29.39,6.24,48,6.24a353.49,353.49,0,0,0,46.25-3.42c1-.05,1.87-.07,2.67-.07,6.68,0,10.28,1.32,11,4,.53,1.95,2.14,7.89-33.19,28.6-.66.38-1.08.63-1.2.71-1.66,1.11-78.22,3.12-123.72,4.22ZM71.86,263.88l23.71,25.66c47.32-1.15,118.17-3.12,122.22-3.93.21-.14.61-.37,1.17-.7,31.45-18.43,32.59-24.67,32.19-26.15-.25-.91-1.74-2.44-8.93-2.44-.77,0-1.6,0-2.48.05a353.64,353.64,0,0,1-46.44,3.44c-18.82,0-34.73-2.07-48.63-6.34C123.72,247,108.12,235.24,104,222.68A6.26,6.26,0,0,0,97.75,218c-3.76,0-7.45,2.59-7.45,5.23.26,10.49-4.64,16-9.38,21.31C76.33,249.66,72,254.53,71.86,263.88Z" style="fill:#404041"/><path d="M113.67,240.33c11.92,8.88,25.72,13.29,39.57,18.14C139,257,123.85,250.5,113.67,240.33Z" style="fill:#fff"/><path d="M121.21,228.69l-.62,1.32c-.42.87-1.07,2.15-1.83,3.57-1.55,2.87-3.74,6.56-6.06,10.16s-4.77,7.1-6.72,9.63-3.37,4.12-3.37,4.12,1-1.86,2.38-4.74,2.94-6.78,4.39-10.73,2.74-7.93,3.58-10.91c.42-1.51.7-2.67.91-3.53s.32-1.43.32-1.43Z" style="fill:#fff"/><path d="M105,222.34c-4.86-17.43.52-41.38-16.3-40.23C81.49,182.6,77,187.72,77,198.37c0,10,5.13,13.35,8.53,13.15l3-.17.66,11.85,8.6,3.18Z" style="fill:#404041"/><path d="M97.81,227.47a1.22,1.22,0,0,1-.38-.07l-8.59-3.18a1.08,1.08,0,0,1-.71-1l-.6-10.77-2.29.13c-3.23,0-9.33-3-9.33-14.25,0-10.63,4.52-16.79,12.73-17.35,12.7-.85,13.79,11.34,14.93,24.25.5,5.67,1,11.53,2.48,16.78a1.09,1.09,0,0,1-.51,1.24l-7.2,4A1.1,1.1,0,0,1,97.81,227.47Zm-7.56-5,7.46,2.76,6-3.38a103.69,103.69,0,0,1-2.33-16.35c-1.27-14.35-2.54-23-12.63-22.27-8.85.6-10.7,8.58-10.7,15.18,0,8.86,4.28,12.08,7.16,12.08l3.25-.19a1.06,1.06,0,0,1,.78.28,1,1,0,0,1,.36.74Z" style="fill:#404041"/><path d="M223.1,4.12l2.35,284.25a6.51,6.51,0,0,1-13,.11v-.11L214.79,4.12a4.16,4.16,0,0,1,8.31,0Z" style="fill:#404041"/><path d="M217.35,3.43l.45,40.93c.06,6.14.12,12.79.18,19.83s.05,14.45,0,22.13c0,15.35-.07,31.72-.11,48.09l-.28,131a.82.82,0,0,1-1.63,0s.15-65.49.29-131c0-16.38.06-32.75.1-48.1,0-7.67,0-15.09.1-22.12s.19-13.69.27-19.83Z" style="fill:#fff"/><path d="M333.23,67.44h0L81.15,66.29a4.34,4.34,0,0,1,0-8.67h0l252.06,1.15a4.34,4.34,0,0,1,0,8.67Z" style="fill:#404041"/><path d="M81.17,60l39.39-.11,86.64.14,86.65.65,39.38.47-39.39.11-86.64-.15-86.65-.64Z" style="fill:#fff"/><path d="M89,64.75c24.09,18,56.22,17.71,68,1,21.51,17.07,52.55,13.77,62.68-.61C224.9,77.27,262.27,87,274,64.85c17.57,14.43,52,22.82,51.4.91,37.1,48.83,32.71,156.45-20.05,192.93-35-56.78-119.15-43.06-200-1.41C156.79,176.37,119.56,87.66,89,64.75Z" style="fill:#fff"/><path d="M305.34,260.86a2.3,2.3,0,0,1-.45-.05,2.18,2.18,0,0,1-1.4-1c-15-24.37-40.08-36.72-74.46-36.72s-76.85,12.48-122.71,36.1a2.17,2.17,0,0,1-2.82-3.09C153.06,178.19,119,90,87.65,66.49A2.17,2.17,0,1,1,90.25,63c11.11,8.32,24.84,13.09,37.66,13.09,12.12,0,22-4.24,27.21-11.64a2.16,2.16,0,0,1,3.12-.45,51.8,51.8,0,0,0,32.09,11.06c12.07,0,22.6-4.3,27.48-11.22a2.11,2.11,0,0,1,2-.91,2.15,2.15,0,0,1,1.76,1.29C224,69.75,235.8,75.9,248.89,75.9c6.27,0,17.62-1.57,23.19-12.07a2.17,2.17,0,0,1,1.49-1.11,2.2,2.2,0,0,1,1.8.45c9.74,8,24.44,13.81,35,13.81,4.66,0,8.24-1.14,10.36-3.31,1.77-1.82,2.62-4.46,2.53-7.86a2.17,2.17,0,0,1,3.9-1.36c20.59,27.1,29.39,72.94,22.4,116.77-5.72,35.91-21,64.06-42.95,79.25A2.16,2.16,0,0,1,305.34,260.86ZM229,218.76c35.06,0,60.92,12.39,76.91,36.83,20-14.8,33.93-41.34,39.3-75.06,6.44-40.38-.78-82.39-18.41-109a12.73,12.73,0,0,1-3,5.16c-3,3.07-7.52,4.63-13.46,4.63-10.9,0-25.25-5.37-35.73-13.24-5.21,7.86-14.24,12.15-25.71,12.15-12.11,0-24.39-4.91-29.55-11.41-6.21,6.6-17,10.6-29,10.6a56.27,56.27,0,0,1-33-10.67c-6.25,7.46-16.81,11.69-29.39,11.69a65.73,65.73,0,0,1-25.76-5.56c11.44,14.21,22.66,36.53,27.89,64,5.33,27.95,6.1,69.7-18.93,113.07C155,230.21,195.64,218.76,229,218.76Z" style="fill:#404041"/><path d="M126.19,78.91c-9.4.39-18.88-2.51-28.81-8.47l-.94,1.11a91,91,0,0,1,8,9.86,121.82,121.82,0,0,1,13.93,25.7c12.52,30.17,18.36,71.2,4.6,113.13a166.23,166.23,0,0,1-14.31,32.3l2.9,1.62c7.8-3.87,15.62-7.48,23.41-10.77C162.48,180.11,148.16,115.07,126.19,78.91Z" style="fill:#404041"/><path d="M181.38,227.5c19.59-60.54,6.08-120.58-14-155.38a52,52,0,0,1-10.49-6.4,71.16,71.16,0,0,1-11.73,7.82C164.59,101.2,186,167.17,158.1,234.48Q169.89,230.42,181.38,227.5Z" style="fill:#404041"/><path d="M201.51,223.28a181.67,181.67,0,0,1,21.35-2.22C241,164.35,229,108.72,209.38,73.24a45.25,45.25,0,0,1-20.49,4C207.57,107.8,223.79,164.37,201.51,223.28Z" style="fill:#404041"/><path d="M262.5,225.68c18.83-55.91,8.85-111.3-9.17-147.87A45.1,45.1,0,0,1,228.05,73c18.82,29.19,36.84,87.59,15.27,148.76A102,102,0,0,1,262.5,225.68Z" style="fill:#404041"/><path d="M267.87,227.56a76.75,76.75,0,0,1,17.28,9.26C295.68,220.69,303,201,306.63,178.68c5.9-36.74.18-74.81-14.6-103.49a68.1,68.1,0,0,1-18-10.34,22.93,22.93,0,0,1-6.29,7.48c18.12,25.39,25.82,65,19.66,103.36C284.16,195.63,277.39,213.36,267.87,227.56Z" style="fill:#404041"/><path d="M348.38,129.43c-2.93-22.59-10.13-43.73-20.9-60.72-.69-1-1.37-2-2.09-2.95.24,9.18-5.67,13-13.9,13.35,15.68,24.65,22.64,60.09,17.86,94.77-4.12,29.89-16.51,55.07-34.6,71.22a77.41,77.41,0,0,1,10.59,13.59c9.85-6.81,18-16.1,24.53-27a136.42,136.42,0,0,0,9-18.59c.52-1.34,1-2.71,1.49-4.08l.54-1.47C349.06,183.39,351.44,155.45,348.38,129.43Z" style="fill:#404041"/><path d="M334,131.47c2.91,8,3.32,17,3.23,25.49s-.81,17.38-3.81,25.4A204.89,204.89,0,0,0,334,131.47Z" style="fill:#fff"/><path d="M339.48,131c2.9,8,3.31,17,3.22,25.49s-.81,17.39-3.8,25.41A205.94,205.94,0,0,0,339.48,131Z" style="fill:#fff"/><path d="M345.12,131.39c2.91,8,3.32,17,3.22,25.49s-.8,17.38-3.8,25.4A204.89,204.89,0,0,0,345.12,131.39Z" style="fill:#fff"/><path d="M129.69,134.12c3.51,7.27,4.62,15.76,5.18,23.73s.53,16.46-1.83,24.22A183.66,183.66,0,0,0,129.69,134.12Z" style="fill:#fff"/><path d="M135.1,133.23c3.5,7.27,4.62,15.76,5.18,23.73s.52,16.47-1.83,24.22A183.66,183.66,0,0,0,135.1,133.23Z" style="fill:#fff"/><path d="M140.76,133.23c3.5,7.27,4.62,15.76,5.18,23.73s.52,16.47-1.83,24.22A183.66,183.66,0,0,0,140.76,133.23Z" style="fill:#fff"/><path d="M171.36,131.28c3.52,7.78,4.62,16.72,5.18,25.16s.54,17.4-1.83,25.63A205,205,0,0,0,171.36,131.28Z" style="fill:#fff"/><path d="M176.77,130.34c3.52,7.78,4.62,16.72,5.18,25.16s.54,17.4-1.83,25.63A205.44,205.44,0,0,0,176.77,130.34Z" style="fill:#fff"/><path d="M182.43,130.34c3.52,7.78,4.62,16.72,5.18,25.16s.54,17.4-1.83,25.63A205.44,205.44,0,0,0,182.43,130.34Z" style="fill:#fff"/><path d="M212.84,131.26c3.51,7.79,4.59,16.73,5.13,25.17s.5,17.4-1.89,25.63A205,205,0,0,0,212.84,131.26Z" style="fill:#fff"/><path d="M218.26,130.34c3.5,7.78,4.58,16.73,5.12,25.17s.5,17.4-1.89,25.62A205.41,205.41,0,0,0,218.26,130.34Z" style="fill:#fff"/><path d="M223.91,130.35c3.5,7.79,4.59,16.73,5.12,25.17s.5,17.4-1.88,25.62A205,205,0,0,0,223.91,130.35Z" style="fill:#fff"/><path d="M254.25,131c3.25,7.89,4,16.87,4.31,25.32s-.06,17.41-2.71,25.55A205.27,205.27,0,0,0,254.25,131Z" style="fill:#fff"/><path d="M259.69,130.28c3.24,7.89,4,16.86,4.31,25.32s-.06,17.41-2.71,25.55A205.27,205.27,0,0,0,259.69,130.28Z" style="fill:#fff"/><path d="M265.34,130.47c3.25,7.9,4,16.87,4.31,25.32s-.06,17.41-2.71,25.55A205.29,205.29,0,0,0,265.34,130.47Z" style="fill:#fff"/><path d="M310.6,325.58l-6.5-5.74c12.58-14.26,21.24-32.42,25-52.51l8.52,1.62C333.57,290.56,324.22,310.15,310.6,325.58Z" style="fill:#fff"/><path d="M292.69,225.94s-62.37,52.93-144,55.79c-46.87,1.64-71-16.26-77.74-20.2-.28,1.4-.41,6-.41,6,0,20.92,17.15,57.21,56.83,74.3C148.65,351,190.4,357.38,238.11,355,284.7,326.69,288.75,298.16,292.69,225.94Z" style="fill:#404041"/><path d="M218,356.59h0c-36.51,0-71.42-5.28-91.1-13.76-41.88-18-57.48-55.76-57.48-75.3a61.91,61.91,0,0,1,.42-6.21,1.09,1.09,0,0,1,1.61-.73c.57.34,1.26.77,2.07,1.28,8.69,5.42,32.49,20.29,75.1,18.77,80.33-2.81,142.74-55,143.36-55.52a1.08,1.08,0,0,1,1.79.88c-3.87,70.95-7.34,100.9-55.1,129.92a1.05,1.05,0,0,1-.51.16C231.45,356.42,224.67,356.59,218,356.59ZM71.79,263.34c-.11,1.46-.18,3.36-.2,4.22,0,18.95,15.25,55.65,56.16,73.28,19.44,8.37,54,13.58,90.25,13.58h0c6.54,0,13.18-.17,19.77-.49,46-28.07,49.92-57.34,53.69-125.62-11.15,8.78-69.57,51.94-142.78,54.5-43.3,1.52-67.48-13.59-76.32-19.11Z" style="fill:#404041"/><path d="M77.37,288.1l1.5,2.69c.94,1.71,2.4,4.09,4.15,6.92.93,1.39,1.87,2.93,3,4.47s2.32,3.17,3.55,4.84,2.59,3.35,4.05,5,2.94,3.27,4.48,4.87,3.08,3.18,4.72,4.62l2.4,2.18,2.44,2c1.58,1.35,3.23,2.51,4.72,3.7s3,2.15,4.39,3.12l3.82,2.47c1.13.77,2.18,1.32,3,1.83l2.64,1.58-2.79-1.3c-.87-.44-2-.91-3.16-1.58s-2.57-1.37-4-2.23-3-1.84-4.59-2.92-3.3-2.21-4.91-3.57l-2.51-2-2.47-2.17c-1.69-1.44-3.26-3.05-4.87-4.62s-3.06-3.3-4.46-5-2.74-3.43-4-5.1-2.39-3.39-3.4-5-1.94-3.22-2.8-4.66c-1.64-2.93-2.83-5.48-3.65-7.25Z" style="fill:#fff"/><path d="M290.19,225.94c-3.76,72.22-7.62,100.75-52.08,129.06,5.56-.26,12.74-.38,16.42-1.22,46.64-10.59,71.78-48.17,78.87-85.64C314.14,247.28,290.19,225.94,290.19,225.94Z" style="fill:#404041"/><path d="M238.1,356.08a1.07,1.07,0,0,1-1-.76,1.09,1.09,0,0,1,.45-1.24c44.67-28.44,47.94-58,51.59-128.19a1.09,1.09,0,0,1,.66-.95,1.1,1.1,0,0,1,1.14.19c.24.22,24.21,21.61,43.29,42.27a1.12,1.12,0,0,1,.27.94c-8.47,44.75-38.26,77.09-79.7,86.5-3.09.7-8.33.91-13.39,1.11l-3.23.13Zm53-127.81C287.6,295.85,284,325.7,242,353.75c4.55-.17,9.53-.4,12.29-1,40.41-9.18,69.51-40.66,77.94-84.26C316.23,251.18,296.9,233.47,291.15,228.27Z" style="fill:#404041"/><path d="M322.86,253.37c-9.35-8.4-16.1-17.29-20.65-27.18l6.79-3.12c4.11,9,7.75,18.32,16.55,27.31Z" style="fill:#fff"/><path d="M296.54,247.58a144.72,144.72,0,0,0,29.15,29.7,146.77,146.77,0,0,1-32.54-27Z" style="fill:#fff"/><path d="M295.52,263.58c7.09,10.56,16.51,19.2,26.76,26.64-11.28-6.38-21.79-14.12-30.21-24Z" style="fill:#fff"/><path d="M294.35,279.52c5.88,8.82,14.09,15.41,22.25,22-9.24-5.59-18.46-11.19-25.69-19.36Z" style="fill:#fff"/><path d="M290.33,295.41c5.61,7.18,12.93,12.29,20.49,17.23-8.53-3.81-16.79-7.88-23.68-14.31Z" style="fill:#fff"/><path d="M284.55,311.5c3.95,5.76,9.54,9.68,15.33,13.42-6.78-2.61-13.31-5.52-18.62-10.61Z" style="fill:#fff"/><path d="M275.71,327.43c3.22,4.36,8.23,7,13.28,8.73-5.87-.47-11.73-2-16.38-5.7Z" style="fill:#fff"/><path d="M335.75,261.15c-25.87-18-33.23-36-36.33-49.27,0,0-4.58-2.76-4.58,9.87,0,3.9.16,7.92.46,11.72,7.66,10.66,23.29,27.21,39.5,35.44C335.86,268.54,336.69,261.7,335.75,261.15Z" style="fill:#fff"/><path d="M334.8,271.07a2.27,2.27,0,0,1-1-.23c-17.8-9-33.69-26.94-40.28-36.11a2.16,2.16,0,0,1-.4-1.09c-.3-3.85-.47-8-.47-11.89,0-8.16,1.93-12.29,5.73-12.29a4.33,4.33,0,0,1,2.14.57,2.18,2.18,0,0,1,1,1.36c2.8,12,9.52,29.91,35.46,48,1.13.65,1.55,2.3,1.25,5.43-.52,5.38-2.12,5.94-2.72,6.15A2.27,2.27,0,0,1,334.8,271.07Zm-37.38-38.38c6.28,8.61,20.38,24.41,36.3,33.19a16.1,16.1,0,0,0,.27-3.33c-25.17-17.73-32.85-35.41-36.11-47.88a20.68,20.68,0,0,0-.87,7.08C297,225.36,297.15,229.13,297.42,232.69Z" style="fill:#404041"/><path d="M283.21,249.12c-19.11,12-39.12,22.08-60.56,29.2-24.34,8.09-50,12.64-75.73,12.37a189.38,189.38,0,0,1-32.76-3c46.56,7.49,95.68-3.48,137.27-24.76a309.2,309.2,0,0,0,29.44-17.46Z" style="fill:#fff"/><path d="M120.44,297.31a203.79,203.79,0,0,0,30.62,2.43A232.87,232.87,0,0,0,189,296c24.72-4.32,48.78-13.27,71.33-24.11,5.8-2.8,11.49-5.82,17.14-8.91.65-.35,2.56-1.79,3.15-1.5.74.36,1.57,2.86,2,3.63-19.13,9.83-38.7,18.47-59.31,24.75a238.39,238.39,0,0,1-70.63,10.69A200.92,200.92,0,0,1,120.44,297.31Z" style="fill:#fff"/><path d="M130.2,309.71c19.73,2,39.44,1.8,59-1.63A322,322,0,0,0,253,289.65c9.43-3.76,18.63-8.06,27.79-12.42l1.86,3.92c-38.67,17.13-79.28,30-121.91,30.68A213.78,213.78,0,0,1,130.2,309.71Z" style="fill:#fff"/><path d="M138.22,319.12a272.67,272.67,0,0,0,59.14-1.66,259.44,259.44,0,0,0,64-17.8c4.9-2.05,9.72-4.26,14.53-6.51,1.16-.55,1.1-.87,1.75-.07a16.72,16.72,0,0,1,1.55,3.31A310.17,310.17,0,0,1,227.42,314,262.4,262.4,0,0,1,165.94,321,264.9,264.9,0,0,1,138.22,319.12Z" style="fill:#fff"/><path d="M150.75,328.24c33.46,2,66.52-2.29,98.7-11.57,7.48-2.16,14.85-4.62,22.2-7.16l1.38,4.1c-32,9.84-64.86,16.24-98.47,16C166.6,329.59,158.68,329,150.75,328.24Z" style="fill:#fff"/><path d="M178.78,338.26a310.47,310.47,0,0,0,83-12.12l1.11,4.19A312.75,312.75,0,0,1,178.78,338.26Z" style="fill:#fff"/><path d="M211.54,348.32a258.42,258.42,0,0,0,39-6l.6,3.2A260,260,0,0,1,211.54,348.32Z" style="fill:#fff"/><path d="M83.38,184.45C96.85,177.57,96.8,205.27,97,212.07c.39,10.81.64,21.61.82,32.42-.7-10.5-1.27-21-1.84-31.51-.38-6.85-.77-13.89-2.33-20.59-.57-2.42-1.3-5.29-3.31-6.95A7.56,7.56,0,0,0,83.38,184.45Z" style="fill:#fff"/><path d="M85.52,204.68c-6.61-.9-6.55-13.23-.52-15.07C80.24,192.44,80.18,202.4,85.52,204.68Z" style="fill:#fff"/><path d="M87.83,238C85,243.69,80.37,248.2,78,254.2c-1.32,3.34-2.06,7.33-.5,10.73,1.43,3.09,4.48,4.87,7.42,6.31.52.25,3.12,1.06,3.36,1.58.14.33-.49,1.61-.7,2-.51.87-.18.79-1.27.42a29.2,29.2,0,0,1-3.94-1.69c-3-1.53-5.82-3.69-7.18-6.84a15.12,15.12,0,0,1,0-10.88C77.73,248.61,83.72,244.09,87.83,238Z" style="fill:#fff"/><path d="M338.15,136.76c-.61-6.69-2.79-13.66-7.55-18.59s-11.16-6.65-17.81-6.13c-7.6.6-15.06,1.34-21.44,6-9,6.57-12.34,17.25-13.93,27.78-1.48,9.84-2,19.8-3,29.7-1.28,13.78-3.12,28.06-9.12,40.69-5.29,11.12-13.94,19.21-24.55,25.21-12.86,7.27-27,12.63-41.07,17.1-3.76,1.2-7.57,2.3-11.39,3.31-.86.22-2.22.22-2.38,1-.09.41.31,1.23.41,1.64L188.5,273q7.81-2,15.49-4.44a277.2,277.2,0,0,0,30.38-11.71c7.72-3.54,15.6-7.55,22.28-12.88a65.11,65.11,0,0,0,18.24-22.6c4.51-9.3,6.95-19.45,8.52-29.63,2.28-14.81,2.51-29.84,4.79-44.64,1-6.44,2.42-12.92,6.94-17.91,4-4.42,8.91-5.29,14.44-5.87a51.53,51.53,0,0,1,5.94-.5,10.41,10.41,0,0,1,9.53,6.2c3.5,6.94,3.11,16.57.71,23.77-2.24,6.7-7.27,12.16-14.63,12.61-3.6.22-9.91-1.07-12.67,1.88-1.64,1.75-1.41,3.93-1.39,6.16,0,2.63,0,5.26.1,7.89.05,2.09.13,4.18.21,6.27.21,6.2.44,12.39.65,18.58.72,21.36,1,42.81-1.52,64.07a141.06,141.06,0,0,1-9.2,36.74c-7.42,18.21-19.45,36.08-37,45.78.43-.13.85-.29,1.25-.45,19.63-6.86,33.79-25.32,42.39-43.44,12.94-27.27,14.73-58.56,14.85-88.27.05-14.77-.43-29.54-.76-44.3,6.93-.25,13.32-1.32,19-6.12C336.35,162.18,339.24,148.56,338.15,136.76Z" style="fill:#fff"/><path d="M313.64,117.39l-8,.84v2.3c-7,3.94-10.08,11-11.74,18.85-2.32,11-1.86,21.12-3.06,33.45-2.64,27.3-2.33,60.52-2.33,60.52,0,30.61-4.44,87.77-49,120-.47.34,9.65-.05,10.77-.63,6.74-3.46,31.09-17.81,44-59.89,10.26-33.37,8-80.24,8-112,0-1.29.05-31.65,3.32-40.29,2.91-7.68,12.87-12.8,16.57-2.12,4.21,12.15-4.67,17.23-10.79,18.62l-7.85,4.81-4.91,9.18,12.87-.27c12.83-.87,21.42-12,21.42-30.08C332.93,131.48,329.22,116.1,313.64,117.39Z" style="fill:#404041"/><path d="M240.91,355.64c-1.47,0-3,0-3.49-1.6a2.22,2.22,0,0,1,.81-2.45c32-23.08,48.14-62.86,48.14-118.24,0-.31-.28-33.63,2.34-60.73.43-4.38.64-8.5.85-12.49.37-7.2.73-14,2.25-21.2,1.3-6.11,3.92-14.67,11.69-19.62v-1.08a2.18,2.18,0,0,1,1.94-2.16l8-.84c.73-.06,1.39-.08,2-.08,14.51,0,19.66,13.77,19.66,25.56,0,18.63-9.2,31.28-23.44,32.24l-7.09.15c-.1,4.31-.1,7.37-.1,7.76,0,4.63,0,9.59.1,14.78.3,30.75.67,69-8.19,97.82-12.53,40.74-35.73,56.36-45.12,61.19C249.48,355.57,241,355.64,240.91,355.64Zm66.92-235.46v.35a2.18,2.18,0,0,1-1.1,1.9c-5.48,3.06-8.77,8.42-10.67,17.4-1.46,6.86-1.81,13.5-2.17,20.53-.21,4-.43,8.2-.86,12.68-2.6,26.87-2.32,60-2.32,60.29,0,53.82-15,93.4-44.76,117.78a24.74,24.74,0,0,0,3.51-.39c8.72-4.5,30.73-19.37,42.78-58.53,8.66-28.16,8.29-66.06,8-96.51-.05-5.21-.1-10.18-.1-14.82,0-.39,0-3.4.1-7.67l-1.55,0a2,2,0,0,1-1.89-1,2.17,2.17,0,0,1-.06-2.16l3.87-7.23c.56-11.51,1.57-19.24,3-23,2.11-5.57,7.09-9.61,11.86-9.61,2.31,0,6.52,1,8.79,7.54,1.77,5.11,1.61,9.61-.48,13.37-3,5.32-8.79,7.32-11.52,8l-7.06,4.32-.3.57c-.08,1.64-.14,3.24-.19,4.77l6.78-.14c11.86-.8,19.29-11.5,19.29-27.91,0-3.67-.86-22.47-16.94-21.16Zm7.62,14.35c-2.88,0-6.39,3.06-7.8,6.81-.77,2-1.76,6.59-2.45,17l5.07-3.11a1.92,1.92,0,0,1,.66-.27c1.53-.35,6.73-1.8,9-5.95,1.46-2.63,1.52-5.95.17-9.85C319.41,137.05,318,134.53,315.45,134.53Z" style="fill:#404041"/><path d="M305.67,118.23c-11.9,1-19.37,10.74-21.73,21.92-2.32,10.93-2.85,23-4,35.33-2.63,27.17-7.13,52.56-32.14,68.08-11.66,7.23-24.5,12.34-37.26,17a238,238,0,0,1-23.33,7.15v8.23q7.42-1.68,14.77-3.84c8.09-2.39,16.16-5.16,24.12-8.28l0,0c.14-.06.28-.13.43-.18,32.33-11.85,53.09-30.92,53.09-30.92,0,30.89,5.05,81-40.18,120.5-.43.37-.35.82,1.31.09,8-3.57,32.37-17.42,44.81-58,10.2-33.26,6.75-82.21,6.75-113.84,0-21,.13-31.52,3.29-40.16,4.22-11.56,16.66-10.77,16.66.49,0,10.26-13.85,9.46-13.85,9.46l.28,19.77c12.74-.86,26.19-7.59,26.19-29.57C324.83,132.28,321.15,117,305.67,118.23Z" style="fill:#fff"/><path d="M239.42,355.88a2.36,2.36,0,0,1-2.27-1.51,2.49,2.49,0,0,1,.82-2.78c40.52-35.37,39.94-78.69,39.51-110.32,0-1.32,0-2.61-.05-3.87a181.14,181.14,0,0,1-50.21,28.29l-.33.14-.27.09c-7.89,3.09-16,5.87-24.06,8.25-4.73,1.4-9.75,2.7-14.9,3.88a2.18,2.18,0,0,1-1.83-.43,2.15,2.15,0,0,1-.82-1.69V267.7a2.18,2.18,0,0,1,1.64-2.11,235.41,235.41,0,0,0,23.12-7.08c12.32-4.49,25.31-9.63,36.85-16.79,24.28-15.06,28.58-40,31.13-66.45.3-3.11.56-6.21.81-9.28.77-9.25,1.5-18,3.26-26.29,2.88-13.61,11.95-22.66,23.67-23.63,15.95-1.34,21.5,13.13,21.5,25.42,0,25.95-17.67,31-28.21,31.73a2.19,2.19,0,0,1-1.61-.57,2.16,2.16,0,0,1-.7-1.56l-.28-19.77a2.16,2.16,0,0,1,.67-1.6,2.2,2.2,0,0,1,1.62-.6,4.34,4.34,0,0,0,.57,0c3.3,0,11-.72,11-7.31,0-4-1.92-6.64-4.89-6.64-2.33,0-5.71,1.81-7.57,6.89-3,8.29-3.17,18.64-3.17,39.42,0,6,.13,12.61.26,19.62.57,30.11,1.27,67.58-7.1,94.86-12.8,41.74-38.44,55.95-46,59.32A5.41,5.41,0,0,1,239.42,355.88Zm40.15-125.32a2.24,2.24,0,0,1,.87.19,2.15,2.15,0,0,1,1.3,2c0,2.69,0,5.52.07,8.48.38,27.63.92,68-29.78,102.56,10.14-8,23.35-22.8,31.41-49.06,8.16-26.62,7.47-63.71,6.91-93.51-.14-7-.26-13.68-.26-19.7,0-21.29.14-31.93,3.42-40.91,2.17-5.91,6.74-9.74,11.65-9.74,4.44,0,9.22,3.44,9.22,11,0,8-6.89,11.2-13.83,11.6l.22,15.24c10.48-1.32,21.89-7.33,21.89-27.18,0-3.66-.84-22.41-16.81-21.1-11.64,1-17.86,11.07-19.79,20.21-1.7,8-2.42,16.63-3.18,25.75-.26,3.09-.52,6.21-.82,9.34-2.66,27.55-7.19,53.61-33.15,69.71C237,252.78,223.79,258,211.25,262.58c-7.09,2.59-14.45,4.87-21.9,6.8v3.82c4.13-1,8.15-2.05,12-3.18,8-2.38,16.09-5.15,23.95-8.23l.13,0a2.4,2.4,0,0,1,.32-.13,174.25,174.25,0,0,0,52.37-30.48A2.17,2.17,0,0,1,279.57,230.56Z" style="fill:#404041"/><path d="M2,297.9.1,291A2.71,2.71,0,0,1,2,287.61l7-2a19.08,19.08,0,0,1,15.37,2.28h0a19.12,19.12,0,0,1-12,9.9l-7,1.95A2.71,2.71,0,0,1,2,297.9Z" style="fill:#404041"/><polygon points="70.87 282.4 82.9 278.79 72.81 286.27 70.87 282.4" style="fill:#fff"/><path d="M14.55,318.87l-3.35-6.73a2.73,2.73,0,0,1,1.23-3.66l6.74-3.35a19.58,19.58,0,0,1,15.93-.68h0a19.57,19.57,0,0,1-10.16,12.3l-6.73,3.35A2.73,2.73,0,0,1,14.55,318.87Z" style="fill:#404041"/><polygon points="77.22 297.75 87.72 293.08 79.69 301.31 77.22 297.75" style="fill:#fff"/><path d="M35.57,336.56l-5.46-8.08a2.13,2.13,0,0,1,.57-3l7.41-5a21.14,21.14,0,0,1,16.94-3h0a21.13,21.13,0,0,1-9.11,14.59l-7.4,5A2.12,2.12,0,0,1,35.57,336.56Z" style="fill:#404041"/><polygon points="88.27 315.7 109.12 302.14 90.94 319.12 88.27 315.7" style="fill:#fff"/><path d="M57.85,350.83l-6.23-8A2.73,2.73,0,0,1,52.1,339l7.55-5.9a23.53,23.53,0,0,1,18.59-4.62h0a23.58,23.58,0,0,1-9,16.91l-7.55,5.89A2.74,2.74,0,0,1,57.85,350.83Z" style="fill:#404041"/><polygon points="106.91 332.06 144.16 300.67 109.84 335.24 106.91 332.06" style="fill:#fff"/><path d="M89.94,360.78l-7.64-8.31a3,3,0,0,1,.18-4.17l7.82-7.19a26,26,0,0,1,20-6.74h0a26,26,0,0,1-8.4,19.39L94.11,361A2.94,2.94,0,0,1,89.94,360.78Z" style="fill:#404041"/><path d="M138.72,240.23C144,228,149.1,215.07,151.79,202a154.1,154.1,0,0,1-3.72,20c-1.54,6.62-3.26,13.21-5.27,19.7Z" style="fill:#404041"/><path d="M145.43,237.58c5.11-11.73,9.83-24.06,12.77-36.54-1.54,12.82-4.89,25.7-8.69,38Z" style="fill:#404041"/><path d="M151.88,235.2a209.17,209.17,0,0,0,12-35.47A211,211,0,0,1,156,236.67Z" style="fill:#404041"/><path d="M132,76.44c7.09,11.49,11.75,24.61,14.52,37.79-4.09-12.55-10-24.87-18.08-35.31Z" style="fill:#404041"/><path d="M138,75.7c7.09,11.49,11.75,24.61,14.52,37.79-4.09-12.55-10-24.87-18.08-35.31Z" style="fill:#404041"/><path d="M144.06,74.89c7.22,11.7,12,25.17,14.84,38.6C154.75,100.7,148.75,88,140.5,77.36Z" style="fill:#404041"/><path d="M257.7,75.87c6,11.07,9.66,23.36,11.86,35.74C266,99.82,261.12,88.24,254,78.16Z" style="fill:#404041"/><path d="M298.1,76a135.07,135.07,0,0,1,9.79,33.19c-3.33-10.83-7.61-21.5-13.61-31.13Z" style="fill:#404041"/><path d="M304.18,77.05a132.72,132.72,0,0,1,9.41,31.65,130.07,130.07,0,0,0-13.23-29.59Z" style="fill:#404041"/><path d="M310.34,78.12a131.1,131.1,0,0,1,9.14,30.56,129.25,129.25,0,0,0-13-28.5Z" style="fill:#404041"/><path d="M263,75.41c6,11,9.61,23.21,11.81,35.49-3.55-11.69-8.43-23.19-15.49-33.2Z" style="fill:#404041"/><path d="M267.49,73.15c6.34,11.64,10.18,24.71,12.42,37.73-3.58-12.44-8.68-24.8-16.1-35.45Z" style="fill:#404041"/><path d="M173.89,73.19C181,84.68,185.63,97.8,188.4,111c-4.08-12.55-10-24.87-18.07-35.31Z" style="fill:#404041"/><path d="M180.91,75.19c6.73,11,11.1,23.3,14,35.79-4.17-11.84-9.74-23.41-17.51-33.31Z" style="fill:#404041"/><path d="M186.63,75.33c6.82,11.09,11.22,23.64,14.18,36.28-4.24-12-9.89-23.77-17.73-33.8Z" style="fill:#404041"/><path d="M214.24,71.23c7.24,12.1,12,25.83,14.9,39.6-4.22-13.15-10.22-26.1-18.5-37.18Z" style="fill:#404041"/><path d="M218.57,68.16c8.15,13,13.49,27.81,17,42.73C230.78,96.62,224.18,82.63,215,70.63Z" style="fill:#404041"/><path d="M224.4,67.86c8.66,13,12.69,28.35,16.58,43.29C235.82,97,230.53,82.28,220.91,70.43Z" style="fill:#404041"/><path d="M184.17,225.08c3.34-9.18,6.36-18.47,8.85-27.93-1.08,9.79-2.71,19.49-4.68,29.14Z" style="fill:#404041"/><path d="M190.17,223.86c3.11-9,5.87-18.17,8.16-27.44-.87,9.58-2.25,19.1-4,28.57Z" style="fill:#404041"/><path d="M196,222.56a234.18,234.18,0,0,0,8.5-27.57,237.27,237.27,0,0,1-4.34,28.81Z" style="fill:#404041"/><path d="M225.25,220.16c3.68-9,6.82-18.22,9.65-27.54-1.43,9.72-3.21,19.36-5.53,28.91Z" style="fill:#404041"/><path d="M231.84,219.94c3.5-8.83,6.87-17.78,8.95-27.07-.66,9.58-2.67,19-4.82,28.38Z" style="fill:#404041"/><path d="M237.43,220.4a143,143,0,0,0,8.78-27.77,144,144,0,0,1-4.68,29.17Z" style="fill:#404041"/><path d="M291.09,271.27c2.48-18.16,2.55-36.6,3-54.89C295.34,234.56,294.94,253.41,291.09,271.27Z" style="fill:#fff"/><path d="M294.64,271.26c2.32-18.28,2.43-36.81,3-55.21C298.74,234.35,298.33,253.27,294.64,271.26Z" style="fill:#fff"/><path d="M298.13,271.26c2.32-18.29,2.43-36.82,3-55.22C302.23,234.34,301.82,253.26,298.13,271.26Z" style="fill:#fff"/><path d="M322.21,126.59c5.27,7.36,5.5,19.34,1.15,27.18C326.26,145.38,326.07,134.63,322.21,126.59Z" style="fill:#fff"/><path d="M325.44,126.58c5.27,7.35,5.5,19.33,1.15,27.17C329.49,145.37,329.31,134.62,325.44,126.58Z" style="fill:#fff"/><path d="M328.67,126.56c5.27,7.36,5.5,19.34,1.15,27.18C332.72,145.35,332.54,134.6,328.67,126.56Z" style="fill:#fff"/><path d="M218.7,12.2a109.09,109.09,0,0,1,17.23-1,107,107,0,0,0-16.1,5.15C219.45,15,219.08,13.6,218.7,12.2Z" style="fill:#404041"/><path d="M265.07,22.46a36,36,0,0,1,9.27,3,34.82,34.82,0,0,0-9.44-.83C265,23.91,265,23.19,265.07,22.46Z" style="fill:#404041"/><path d="M265.17,25.2a23.65,23.65,0,0,1,6.91,2.31,22.35,22.35,0,0,0-7.07-.15C265.06,26.64,265.12,25.92,265.17,25.2Z" style="fill:#404041"/><polygon points="94.95 345.32 106.57 332.54 107.73 333.83 94.95 345.32" style="fill:#fff"/><polygon points="63.66 337.02 76.31 325.06 77.37 326.44 63.66 337.02" style="fill:#fff"/><polygon points="41.24 324.07 54.27 313.37 55.23 314.83 41.24 324.07" style="fill:#fff"/><polygon points="21.87 308.53 33.34 301.1 34.09 302.67 21.87 308.53" style="fill:#fff"/><path d="M264.7,27.83a39.36,39.36,0,0,1,5.38,1.77,35.68,35.68,0,0,0-5.56.39Z" style="fill:#404041"/><path d="M218.7,17a109.09,109.09,0,0,1,17.23-1,108.11,108.11,0,0,0-16.1,5.15C219.45,19.78,219.08,18.38,218.7,17Z" style="fill:#404041"/><path d="M218.7,21.77a106.76,106.76,0,0,1,17.23-1A106.92,106.92,0,0,0,219.83,26C219.45,24.56,219.08,23.16,218.7,21.77Z" style="fill:#404041"/><path d="M218.7,26.55a106.76,106.76,0,0,1,17.23-1,106.92,106.92,0,0,0-16.1,5.14C219.45,29.34,219.08,27.94,218.7,26.55Z" style="fill:#404041"/><path d="M215,261.74c9.33-3.1,18.51-6.37,27.62-10.08-8.68,4.7-17.48,9-26.45,13.11Z" style="fill:#404041"/><polygon points="10.91 289.24 22.25 284.52 22.68 286.21 10.91 289.24" style="fill:#fff"/><rect x="14.61" y="277.89" width="75.74" height="4.33" transform="translate(-73.55 24.51) rotate(-15.64)" style="fill:#404041"/><path d="M101.19,278.07c0,8.91-4,16.26-8.93,16.42s-8.88-6.9-8.88-15.76,4-16.21,8.88-16.42S101.19,269.16,101.19,278.07Z" style="fill:#fff"/><path d="M92.1,295.58c-5.5,0-9.8-7.4-9.8-16.85s4.35-17.27,9.91-17.5h.26c5.5,0,9.81,7.4,9.81,16.85,0,9.64-4.39,17.33-10,17.5Zm.37-32.19c-4.42.18-8,7.2-8,15.34s3.43,14.68,7.64,14.68v1.08l.13-1.08c4.27-.14,7.88-7.16,7.88-15.34S96.68,263.39,92.47,263.39Z" style="fill:#404041"/><path d="M89.68,275.07a1.87,1.87,0,0,1,3.1-1.05c1.32,1,1.77,3,1.75,4.5a6,6,0,0,1-1.47,4.14,2.23,2.23,0,0,1-2.14.77c-.1,0-1.37-.9-1.06-1.07C93.25,284.41,93.48,272.21,89.68,275.07Z" style="fill:#404041"/><path d="M87.83,268.3c1.37-3.06,4.6-4.38,7.24-1.91,3,2.76,3.76,7.58,3.81,11.43s-.65,8.2-3,11.35c-2.06,2.78-5.55,3.57-7.58.31,2.37,2.56,5.2,1.59,6.77-1.17,1.76-3.08,2.22-7,2.18-10.47s-.54-7.7-2.79-10.47C92.38,264.78,89.58,265.93,87.83,268.3Z" style="fill:#404041"/><rect x="22.88" y="286.92" width="87.32" height="4.33" transform="translate(-120.55 58.88) rotate(-26.14)" style="fill:#404041"/><path d="M120.11,282.85c0,10.48-4.93,19.11-11,19.29s-10.9-8.12-10.9-18.52,4.87-19,10.9-19.28S120.11,272.38,120.11,282.85Z" style="fill:#fff"/><path d="M108.94,303.22c-6.62,0-11.81-8.61-11.81-19.6s5.25-20.09,12-20.36h.31c6.62,0,11.8,8.61,11.8,19.6,0,11.23-5.29,20.17-12,20.37Zm.45-37.8h-.22c-5.35.22-9.87,8.55-9.87,18.2s4.32,17.44,9.64,17.44v1.08l.15-1.09c5.39-.15,9.93-8.49,9.93-18.2S114.7,265.42,109.39,265.42Z" style="fill:#404041"/><path d="M105.73,279.31a2.41,2.41,0,0,1,3.56-1.4c1.85,1,2.5,3.58,2.49,5.53a7.3,7.3,0,0,1-1.5,4.55c-1.14,1.36-3.36,2-4.31.06C111,291.16,110.93,275.18,105.73,279.31Z" style="fill:#404041"/><path d="M103.3,271.15c2.11-3.75,6.26-5.23,9.65-2.06s4.47,8.33,4.66,12.74c.2,4.75-.68,10.08-3.54,14-2.64,3.62-7.2,4.84-10.13.81,2.69,2.85,6.34,2.34,8.61-.68,2.62-3.49,3.42-8.34,3.46-12.59s-.63-9-3.14-12.54C110.17,267,105.93,267.63,103.3,271.15Z" style="fill:#404041"/><rect x="39.92" y="294.26" width="92.97" height="4.33" transform="matrix(0.83, -0.56, 0.56, 0.83, -150.89, 98.87)" style="fill:#404041"/><path d="M143.15,284.75c0,12.05-5.81,22-12.94,22.17s-12.85-9.34-12.85-21.29,5.74-21.86,12.85-22.16S143.15,272.71,143.15,284.75Z" style="fill:#fff"/><path d="M130,308c-7.69,0-13.71-9.82-13.71-22.37,0-12.71,6.1-22.92,13.88-23.24h.37c7.69,0,13.71,9.83,13.71,22.37s-6.28,23-14,23.25Zm.54-43.45h-.28c-6.51.26-11.8,9.72-11.8,21.07,0,11.14,5.18,20.21,11.54,20.21v1.08l.19-1.09c6.55-.17,11.89-9.63,11.89-21.08C142.07,273.61,136.89,264.55,130.53,264.55Z" style="fill:#404041"/><path d="M126.31,280.62a2.93,2.93,0,0,1,2.84-2.25c2.62,0,4.13,3,4.53,5.2a8.62,8.62,0,0,1-1.84,7.25c-1.39,1.47-4.36,2.23-5.25-.23C132.07,293.11,132.22,276.94,126.31,280.62Z" style="fill:#404041"/><path d="M123.42,271.33c2.57-4.21,7.3-5.92,11.28-2.37s5.4,9.81,5.54,15c.14,5.41-1,11.57-4.46,15.88-3.21,4-8.23,4.81-11.6.55,3.28,3.42,7.77,2.64,10.47-1,3.07-4.13,4-9.62,4-14.64s-.94-10.4-4.14-14.3S126.36,267.48,123.42,271.33Z" style="fill:#404041"/><rect x="61.6" y="303.11" width="92.97" height="4.33" transform="translate(-164.73 130.78) rotate(-37.9)" style="fill:#404041"/><path d="M176.89,283.33c0,14-8.16,25.61-18.17,25.88s-18-10.77-18-24.64,8-25.45,18-25.87S176.89,269.3,176.89,283.33Z" style="fill:#fff"/><path d="M158.37,310.29c-10.48,0-18.7-11.3-18.7-25.72s8.53-26.51,19-27c10.69-.47,19.3,11,19.3,25.72s-8.62,26.68-19.22,27Zm.9-50.52h-.51c-9.33.4-16.92,11.51-16.92,24.79,0,13,7.42,23.56,16.53,23.56h.32c9.44-.25,17.11-11.37,17.11-24.79C175.8,270.34,168.39,259.77,159.27,259.77Z" style="fill:#404041"/><path d="M152.59,277.79a5,5,0,0,1,6.46-2.39c3.31,1.39,4.84,5.28,4.83,8.66a10.15,10.15,0,0,1-3.61,8.06c-2.21,1.67-5.56,1.82-7.22-.71C163.27,296.4,162.91,271,152.59,277.79Z" style="fill:#404041"/><path d="M149,267.49c3.7-5,10-7.12,15.51-3.69,6,3.68,8.57,11.27,8.93,17.94.38,7-1.5,14.82-6.56,19.95-4.77,4.85-11.88,5.58-16.78.52,5,3.93,11.44,3.21,15.62-1.65,4.39-5.1,5.88-12.25,5.56-18.82-.29-6.13-2.59-13.44-8-16.94C158.45,261.72,152.63,263.51,149,267.49Z" style="fill:#404041"/><rect x="90.48" y="303.59" width="101.77" height="4.34" transform="translate(-169.8 176.72) rotate(-42.66)" style="fill:#404041"/><path d="M218.23,279.24c0,16.94-10,30.93-22.2,31.24s-21.9-13-21.9-29.69,9.77-30.69,21.9-31.23S218.23,262.3,218.23,279.24Z" style="fill:#fff"/><path d="M195.61,311.57c-12.65,0-22.56-13.52-22.56-30.78S183.33,249,196,248.47c13-.54,23.33,13.16,23.33,30.77s-10.43,32-23.26,32.33Zm1.14-60.95-.67,0c-11.51.51-20.87,14-20.87,30.15,0,15.78,9.15,28.62,20.4,28.62H196c11.66-.3,21.14-13.83,21.14-30.16C217.14,263.46,208,250.62,196.75,250.62Z" style="fill:#404041"/><path d="M188.63,272.68a6,6,0,0,1,8.76-2.39c3.19,2,4.71,6,4.68,9.61s-1.42,7.34-4.38,9.5c-2.66,1.94-6.6,2-8.53-1C200.68,293.61,200.45,265.42,188.63,272.68Z" style="fill:#404041"/><path d="M184.14,260.35c3.39-4.64,8.76-7.74,14.64-6.44,6.46,1.44,10.88,7.29,13.14,13.18,4.52,11.8,2.44,29.05-8.69,36.66a13.44,13.44,0,0,1-17.76-1.89,13.12,13.12,0,0,0,17.93-1.3c5.46-5.57,7.54-13.9,7.46-21.5s-2.37-16.28-8.6-21.05C196.27,253.43,189.16,255.49,184.14,260.35Z" style="fill:#404041"/></g></g></svg>