<svg xmlns="http://www.w3.org/2000/svg" viewBox="0 0 3453.31 416"><g id="Camada_2" data-name="Camada 2"><g id="Camada_1-2" data-name="Camada 1"><path d="M7.71,4.7,15,9.5l-7.7.3c-4.2.2-7.5.6-7.3,1,3.7,8.1,12,25.3,23.2,47.7,7.6,15.4,17.6,35.6,22.1,45s14.2,29.1,21.5,43.9l13.3,27,17.6-35.5c20-40.2,40.9-82.9,53.8-109.4,4.8-9.9,8.9-18.3,9.1-18.7s-3.3-.8-7.8-1l-8.2-.3,7.3-4.7,7.4-4.7L79.81,0H.31Zm96.4,5c-12.3.2-32.3.2-44.5,0s-2.3-.2,22.2-.2S116.31,9.6,104.11,9.7Zm25.5,18.5c2.2,2.2,1.3,5.4-4.8,17.4-6.4,12.4-6.7,12.9-3.6,5.1,1-2.6,1.6-5,1.3-5.3s-2.6.5-5.1,1.9-4.6,2.4-4.6,2.2a51,51,0,0,1,2.7-5.9c1.5-3.1,2.4-5.8,2.1-6.1s-17.2-.4-37.6-.3l-37,.3L58,68c8.3,16.8,16.6,33.8,18.4,37.9s3.7,7.1,4.1,6.7a85.65,85.65,0,0,0,4.5-7.4l3.8-6.7v6.2c0,6.6.7,9.6,2,8.8.5-.3-.8,3.1-2.8,7.4-3.6,8-6.5,10.8-10.1,9.6-.9-.3-8.4-14.3-17.8-33.2C29.71,35.8,27.81,31.4,31,28.2,32.71,26.5,127.91,26.5,129.61,28.2Zm-16.2,41c-6.6,14-19.5,39.5-19.5,38.7S117.81,58,118.31,58C118.51,58,116.31,63.1,113.41,69.2Zm-7.6-6.8c0,1.1-12.1,25.8-12.5,25.4-.6-.5-12.5-24.8-12.5-25.4,0-.2,5.6-.4,12.5-.4S105.81,62.2,105.81,62.4Z"/><path d="M207.51,1.1c-.9.6-4.2,5.9-7.2,12s-5.8,10.9-6.1,10.9a12.61,12.61,0,0,1-3.4-2.3c-1.6-1.2-4.5-3.3-6.5-4.7s-5.2-3.8-7.3-5.3l-3.7-2.9-5,10.4c-2.7,5.7-7.9,16.4-11.4,23.8-5.8,12.2-22.3,45.8-58.8,120-6.9,14-12.7,25.8-12.9,26.1s4,2.9,9.1,5.9c13.3,7.5,13.3,7.5,9.7,14.7a67.55,67.55,0,0,0-3.6,8c-.7,2.1-.4,2.3,2.6,2.3a12.65,12.65,0,0,0,5.8-1.7c2.3-1.6,2.3-1.6,1.5.3-.4,1-1.5,3.7-2.3,5.9l-1.5,4,6.4,13.5c3.5,7.4,13.3,27.4,21.8,44.5,15.3,30.9,26.2,53.3,32.8,67.4,3.4,7.4,3.4,7.4,4.7,4.9.8-1.4,5.4-11.1,10.4-21.4s16.2-33.5,25-51.4,25.6-52.3,37.5-76.5,28.5-58.3,37.1-75.8,15.6-32.1,15.6-32.3c0-.5,38.4-78.7,42-85.7l3.1-5.7h-17.5l7.9-5,7.9-5h-65.9C231.81.1,208.71.4,207.51,1.1Zm76.6,8.6c-10.1.2-26.5.2-36.5,0s-1.9-.2,18.2-.2S294.11,9.6,284.11,9.7Zm27.1,17.9a5.68,5.68,0,0,1,1.6,3.7c0,1.2-3.6,9.2-8,17.7-8.3,16.3-10.8,19.9-4,5.9,2.2-4.5,3.7-8.6,3.4-9.1s-2.6.2-5,1.6-4.4,2-4.4,1.5a29,29,0,0,1,2.5-5.9,38.21,38.21,0,0,0,2.5-5.5c0-.3-16-.5-35.5-.5-26.2,0-35.5.3-35.5,1.2,0,.6-6.7,14.7-14.9,31.2C199.11,99.3,168,162.9,147,206.2c-9.5,19.7-10.8,22.9-9.7,24.5.7.9,8.4,16.7,17.1,35S170.61,299,171,299s2.4-3.3,4.5-7.3l3.8-7.2.3,5.5a58.93,58.93,0,0,0,.8,8c.6,2.5.6,2.5,2.4-1,3.7-6.8,1.9-2.1-3,8.3-2.8,5.8-5.8,10.8-6.6,11.1-3.7,1.4-6.8-1.8-12.1-12.4-20.1-40.2-36.3-73.9-36.3-75.5,0-1.1,4.2-10.6,9.4-21s18.6-37.7,29.7-60.5c39.9-82,57.7-117.7,59-118.6.8-.5,20.1-1.1,42.9-1.4s42-.6,42.7-.8A3.94,3.94,0,0,1,311.21,27.6ZM185.11,65.7c-7.5,15.7-11.7,23-6.9,12.1,3.6-8.1,13.5-27.8,14-27.8C192.51,50,189.31,57.1,185.11,65.7Zm102.7-3.3c0,.1-7,14.7-15.6,32.2s-20.3,41.6-26.1,53.4c-10.1,20.7-40.1,82-54.9,112L184,274.5l-3.7-7.9-3.7-7.9,2-4.6c4.7-10.5,9.4-21.8,10.4-24.6.6-1.7,1.9-5.3,2.9-8a27.91,27.91,0,0,0,1.9-7.1c0-1.8,26.8-57.8,63.9-133.7l9.2-18.7h10.5C283.11,62,287.81,62.2,287.81,62.4Zm6,9.5c-2.8,5.6-3.5,5.2-.8-.4,1.2-2.4,2.3-4.3,2.6-4.1S295,69.6,293.81,71.9Zm-119,14.9a7.69,7.69,0,0,1-1.5,2.8c-1.4,1.8-1.4,1.7-.4-.9C174.11,86,174.81,85.3,174.81,86.8Zm-10.2,20.7c-1.2,2.4-2.3,4.3-2.6,4.1-.4-.5,3.6-8.6,4.3-8.6C166.61,103,165.81,105,164.61,107.5Zm100.5,23c-2,4.1-3.9,7.3-4.1,7.1-.4-.5,6.6-14.6,7.3-14.6C268.61,123,267.11,126.4,265.11,130.5Zm-119.2,15.2c-1,2.1-3.1,6.4-4.6,9.6s-2.9,5.6-3.2,5.4c-.5-.6,8.4-18.7,9.2-18.7C147.61,142,147,143.7,145.91,145.7Zm109.5,4.9c-1.9,3.8-3.5,6.6-3.6,6.2,0-1.1,6.3-13.8,6.8-13.4C258.81,143.6,257.31,146.9,255.41,150.6Zm-11.8,23.9c-1.8,3.5-3.4,6.3-3.6,6.1-.4-.5,5.6-12.6,6.3-12.6C246.61,168,245.31,170.9,243.61,174.5Zm-120.2,17.2c-.8,1.5-1.5,2.5-1.6,2.1,0-1.2,2.3-5.8,2.7-5.4C124.81,188.6,124.31,190.1,123.41,191.7Zm97.4,29.4c-6.6,13.6-9.2,18.2-7.1,12.8,1.5-4,13.1-26.9,13.6-26.9C227.51,207,224.61,213.3,220.81,221.1Zm-107.7-8.6c-.9,1.9-1.8,3.3-2.1,3.1-.4-.5,2.6-6.6,3.3-6.6C114.61,209,114,210.6,113.11,212.5Z"/><path d="M1109.81,2c-1.9,1.9-2,3.3-2,42.6,0,26.7.3,40.3,1,39.9s1-13.2,1-35.1c0-29.6.2-34.9,1.6-37.6l1.6-3,2.9,3.1,2.9,3.2v78l26.8,17.6c22.7,15,92.8,61.5,225.8,149.9,16,10.7,29.4,19.4,29.8,19.4s.6-60.8.6-135V10h-9.3l2-2.3a40.89,40.89,0,0,0,3.8-5L1400,0h-11.1c-9.8,0-11.3.2-13.1,2-2,2-2,3.3-2,114.5,0,61.9-.2,112.5-.5,112.5s-48.9-32.2-108-71.4l-107.5-71.5V37.5l-5.7-11-5.8-11-.3,31c-.3,34.2-.7,31.5,5.7,35.6,1.4.9,1.4,1.1.2,1.6a16.25,16.25,0,0,0-3.9,3l-2.4,2.4-3.6-2.2a23.41,23.41,0,0,1-4.9-3.7c-1-1.2-1.3-10.2-1.3-37.4V10h-9.4l2.5-2.8c1.3-1.5,3.3-3.7,4.3-5l1.9-2.2h-11.6C1113.11,0,1111.61.2,1109.81,2Z"/><path d="M1642.31,2.5c-31.2,3.5-55.9,11.6-80.4,26.5a187.32,187.32,0,0,0-59.4,57.5c-7.2,10.9-17.6,32.1-21.2,43-5.6,17-9.5,41.2-9.5,58.7,0,6.4.1,6.8,2.3,6.8a7.28,7.28,0,0,1,3.7,1,2.24,2.24,0,0,0,2.6-.1c.8-.7,1.5,2,2.4,10.3a196.62,196.62,0,0,0,4,22.5c3.4,13.5,13.3,37.1,20.2,48.5,2.8,4.6,6.3,10.2,7.7,12.5s2.8,4.3,3.2,4.3c.7,0,4.8-8.1,89.9-180.5,12.8-25.9,29.2-59.1,36.6-73.8s13.4-27.3,13.4-27.8-3.1-.7-8-.3c-4.4.4-8,.4-8,.2s3.2-2.7,7-5.4c6.7-4.6,7.9-5.5,6.3-5.3C1654.61,1.2,1648.91,1.8,1642.31,2.5Zm-19.7,33.7c2,2,1.4,5-3.2,14.1-3.5,6.9-4.5,8.3-4.8,6.5-.4-2.1-1.2-1.5-7.7,5.2l-7.2,7.5,5.1-10.5c2.8-5.8,4.7-10.6,4.2-10.8-1.5-.5-18.1,7.1-26.6,12.2a147.17,147.17,0,0,0-57,62.7c-10.2,21.4-14.5,38.1-15.2,60.4-.3,8.2-.1,17.5.4,20.5,1,5.4,1,5.4,1.1,1.3.2-6.9,3.8-26.4,6.6-35.3,11-34.9,36.4-66.8,67.8-85.2,3.8-2.2,7-3.8,7.2-3.6s-14.6,30.2-32.7,66.8l-32.9,66.6-.4,11c-.4,9.8-.8,11.7-3.6,17.8-5.9,12.7-10.7,11.4-15.7-4-16.2-49.6-8.3-103.4,20.9-142.4a194.27,194.27,0,0,1,32.9-33.9c14.4-11.7,25.2-17.7,44.2-24.6C1615.91,34.9,1620.61,34.2,1622.61,36.2Zm-44.8,98.6a7.69,7.69,0,0,1-1.5,2.8c-1.4,1.8-1.4,1.7-.4-.9C1577.11,134,1577.81,133.3,1577.81,134.8Zm-42.9,86.9c-1.2,2-1.4,1.4-.5-1.2.4-.9.9-1.4,1.1-1.1S1535.51,220.7,1534.91,221.7Z"/><path d="M2184.91,2.6c-46.5,5-83.6,22.3-114.9,53.4-23.9,23.8-38.8,49.1-48.7,83-4.2,14.4-5.4,21.1-6.5,36.4-.5,6.6-1.4,17.9-2.1,25.1-1.9,21.7,1.2,47,8.7,69.3,1.9,5.7,3.4,11.3,3.4,12.4,0,2.9,5.3,22,8.4,30.3a22.54,22.54,0,0,1,1.1,3.5,9.82,9.82,0,0,0,1.3,2.6c.6,1.2,1.9,4.4,2.8,7a39.13,39.13,0,0,0,3.5,7.6,9.08,9.08,0,0,1,1.9,3.7c0,.6,1.4,2,3.1,3s2.9,2.3,2.8,2.7.5,1,1.3,1.2c3.3.6,12.5-9.7,13.3-15.1.5-2.8,8.8-26.5,10.4-29.5.6-1.2,1-2.6.7-3.1s.4-2.4,1.5-4.5,1.7-4.2,1.3-4.8-3.4,4.3-6.8,10.8c-6,11.7-6.2,11.9-9.8,12.2-3.4.3-4-.1-6.8-4-6.1-8.3-19.4-30.3-22.6-37.5-8.7-19-17.3-51.7-17.4-66,0-2.7.5-3.3,3.4-4.4,4.5-1.6,5.6-4.3,5.8-14.7.1-5.5.4-2.2.9,8.8.8,19.8,3,33,8.5,49.7,4.1,12.6,14,33.2,21.8,45.3l5.5,8.5,3.4-7.5c1.9-4.1,13.4-27.8,25.7-52.5s30.8-62.3,41.3-83.5,30.4-61.4,44.3-89.4,25.4-51.1,25.4-51.3-3.9,0-8.7.3l-8.8.6,8-5.6c4.4-3.1,7.5-5.5,7-5.5S2191.71,1.8,2184.91,2.6Zm-19.3,33.6a4.67,4.67,0,0,1,1.2,2.9c0,2.2-8.7,18.4-9.1,17.1-.2-.6-3.5,1.4-7.2,4.5l-6.9,5.5,2.1-4c1.1-2.2,3.1-6.4,4.5-9.5l2.4-5.5-6.2,2.5c-25.3,10.2-48.7,28-63.5,48.3-5.1,7-21.4,36.7-18.4,33.5.5-.6,3.9-4.8,7.5-9.5a154.5,154.5,0,0,1,42.2-37.2c7.6-4.5,24.6-12.1,25.3-11.4.2.2-15.2,31.8-34.2,70.2l-34.7,69.9-.5,9.9c-.4,7.1-.3,9.7.5,9.2.6-.4-.9,3.5-3.3,8.5s-5,9.6-5.9,10.1c-2.4,1.4-6.7-1.2-8.7-5.2-2.4-4.8-6.5-19.1-8.6-30.3-2.3-12.6-2.3-42.7,0-55.2,5.9-31.8,20.3-59,43.4-82.2,14.9-15,26.6-23.7,41.8-31.3C2148.81,37.2,2162.51,33.1,2165.61,36.2Zm-138.1,119c-.3.8-.6.5-.6-.6s.2-1.7.5-1.3A2,2,0,0,1,2027.51,155.2Zm-1,6.5c-.3,1-.5.4-.5-1.2s.2-2.4.5-1.8A7.56,7.56,0,0,1,2026.51,161.7Zm-1,8.5c-.2,1.3-.4.5-.4-1.7s.1-3.2.4-2.3A13.39,13.39,0,0,1,2025.51,170.2Z"/><path d="M374.61,3.2c-1,.9-2,4.4-2.8,10.1-1.4,9.9-.3,9.8-10.1,1.5-3.1-2.7-6.1-4.8-6.7-4.8s-4.4,7.5-8.7,16.7-14.5,30.2-22.6,46.5-14.9,30-14.9,30.3c0,.5-31.4,64.8-60,123-24.2,49.1-58.1,118.5-65.2,133.5l-7.4,15.5,11.7,5.8c11.8,5.9,12.2,6.2,13.5,12.3.5,2.7,5.8,10.6,8,12.1,2.8,1.8,7.4,1,10-1.8.9-1,1.4-1.9.9-1.9s-.1-.7.6-1.6a10.32,10.32,0,0,0,1.6-2.8c.1-.6,1.6-4.9,3.4-9.6,4.3-11.7,8-22.2,8.4-24,.1-.8,2.1-5.4,4.3-10.3s3.9-8.7,3.7-8.7.5-2.1,1.6-4.7,1.7-5.3,1.5-6-.2-1.2.3-.9,2.9-3.7,5.5-8.9c5.1-10.6,6.2-14.3,1.5-5.1-1.7,3.2-3.3,5.5-3.6,5.2s.5-2.2,1.7-4.3a23.9,23.9,0,0,0,2.6-6.1c.3-1.2,9.8-21.5,21.3-45,56-114.5,70.3-143.9,89.6-183.9,18.8-39,21-43.1,22.5-42,1,.7,7,5.5,13.3,10.7l11.6,9.5v51.7l.1,51.8h-18.5c-23.2,0-22.5-.4-22.5,13.5,0,5.2.2,9.5.4,9.5a37.06,37.06,0,0,0,4.8-3.6l4.3-3.7.3,5.7.3,5.6h18.9c22.5,0,22-.2,22,10.1,0,6.4-.2,6.9-1.7,6s-2.5-.3-5,2.2l-3.3,3.1V204h-28.4l4,2.8c2.1,1.6,8.5,6.1,14.2,10.1l10.2,7.2V337h-18.5c-23.2,0-22.5-.4-22.5,13.5,0,5.2.2,9.5.5,9.5a33.17,33.17,0,0,0,5-4.1l4.5-4.2V364h100V347h-18.7c-10.4,0-19.5-.5-20.3-1-1.3-.8-1.6-10.4-2-73.5-.3-40-.1-73.6.3-74.8a6,6,0,0,1,2-2.9c.7-.4,9.6-.8,20-.8h18.7V176h-9.1l4-4.8,4.1-4.8V65h39V38.4l-12.7-11.5c-6.9-6.3-13.2-12-13.9-12.7a5.38,5.38,0,0,0-1.8-1.2c-.3,0-.6,5.4-.6,11.9,0,9.5-.3,12.3-1.6,13.5s-4.6,1.6-20,1.6h-18.4V167h9.9l-4.5,4.5c-3.9,3.9-5,4.5-8.7,4.5-2.4,0-4.8-.5-5.5-1.2-.9-.9-1.2-18.3-1.2-72,0-68.9,0-70.8,1.9-71.8,1.2-.6,9.6-1,20.5-1h18.6V12l-7.2-.1c-6-.1-6.8-.2-4.2-1,1.7-.5,4.5-2.7,6.3-4.9l3.2-4h-51.4C388,2,375.81,2.3,374.61,3.2ZM399.81,30c22.5,0,22-.2,22,10,0,5.8-.3,6.8-1.5,6.4-.8-.4-3.1.6-5,2l-3.5,2.7V40h-18.9c-22,0-22.1,0-22-8.3,0-5.1.1-5.3,4.7-8.2l4.7-3,.3,4.7.3,4.8Zm6.8,316.7a47,47,0,0,1-7.5,0c-2.1-.2-.4-.4,3.7-.4S408.61,346.5,406.61,346.7Z"/><path d="M615.71,3.9l-2.4,1.9-.5,66.4-.5,66.3-32.7,20-32.8,20,8.1.5,8.1.5-6.1,4c-3.3,2.2-6.1,4.2-6.1,4.5s7.3,4.9,16.3,10.3,25,15.2,35.7,22l19.5,12.2.3,7.3c.2,4.8-.1,7.2-.7,6.7-.6-.3-2.8.4-5.1,1.5l-4,2V359.4l3.7-3.5c2-1.8,4.3-4.1,5-4.9,1-1.2,1.2-.2,1.3,5.7V364h18V307.6c0-50,.2-56.6,1.6-58,2.4-2.5,5.7-1.9,11.4,1.9,2.8,1.9,11.3,7.2,18.8,11.6,18.2,10.9,18.2,10.9,18.2,18.1,0,4.9-.3,5.8-1.7,5.8a12.57,12.57,0,0,0-5,2l-3.3,2-.2-3.8c-.1-2-.2-4.4-.2-5.3s-5.5-4.9-14.3-10.2c-7.8-4.8-14.5-8.7-14.8-8.7s-.5,24.5-.5,54.5c0,52.8-.1,54.5-1.9,55.5-1.1.5-6.6,1-12.3,1-11.9.1-12.3-1,3.5,10.3l9.4,6.8.5,6.4c.7,7.8,3.6,13,8.1,14.4,7.9,2.4,9.2,2.3,12.5-.7a18.24,18.24,0,0,0,4.1-6.8c.5-2.1,1.2-16.3,1.5-31.4s1-34.3,1.6-42.5,1.2-15.6,1.2-16.3.5-.9.9-.5,1,11.1,1.1,23.7l.3,22.8,4.8-4.7,4.7-4.7V364h18V328.6c0-30.9.2-35.7,1.6-37,1.6-1.7,6.9-2.2,7.8-.8.3.4,7.5,5.1,16,10.3s22.5,13.6,30.8,18.8,28.1,17.2,43.8,26.7l28.5,17.4h34.9l-10.7-6.6c-6-3.6-10.6-6.8-10.4-7s6.2,1.1,13.2,3.1,12.9,3.5,13.1,3.3-17.3-11.1-38.9-24.3-52.1-31.8-68-41.4l-28.7-17.5.2-65.9.3-65.9,59-36c71.1-43.4,109.9-67,110.4-67.5.3-.2-.7-1.6-2.1-3.1s-5.7-7.1-9.7-12.5S892,13,891.11,13s-7.9,3.9-15.7,8.6-27.5,16.8-43.9,26.8c-32.4,19.7-84.9,51.7-101.9,62.1l-10.8,6.6V259.5l3.6,2.3,3.5,2.3-3.8,2.8-3.8,2.8-4-2a17.51,17.51,0,0,1-4.7-3.1c-1.2-1.7-1-150.4.2-152.5.5-1,8.5-6.4,17.7-12s26-15.9,37.3-22.8c35.7-21.8,81-49.4,94.4-57.5l12.9-7.7-14.4-.3-14.4-.3,12-3.3c23.5-6.5,23.5-6,.4-6.1L835,2l-12.8,7.8c-21.9,13.3-27.1,16.5-53.9,33l-26,16-.5-10.4-.5-10.4-8.7-9.7c-4.7-5.4-9.8-10.9-11.2-12.2l-2.6-2.4V73.2l3.8-2.3c2-1.3,4.8-3,6.1-3.8,2.2-1.4,2.2-1.3-.8,4.7-1.7,3.4-3.1,6.7-3.1,7.4,0,1.5-8.9,6.8-11.3,6.8a4.93,4.93,0,0,1-3.1-1.6c-1.4-1.3-1.6-6.1-1.6-37V12h-9.4l3-3.3c6.6-7.1,7-6.7-6-6.7-10.3,0-11.8.2-13.6,2s-2,3.3-2,47.3V96.7l-2.5,1.1-2.5,1.2V68.7l-.1-30.2-12.4-13-12.4-13-.1,50.7c0,28,.3,50.8.6,50.8a37.09,37.09,0,0,0,5.6-3,36.27,36.27,0,0,1,5.3-3c.3,0-.9,2.7-2.6,6s-2.9,6.4-2.5,6.7-1.6,1.9-4.2,3.6c-5,3.2-9.8,3.9-11.3,1.6-.5-.8-.9-26.2-.9-57.7V12h-9.4l2.5-2.8c1.3-1.5,3.3-3.7,4.3-5l1.9-2.2h-11C619.71,2,617.71,2.3,615.71,3.9Zm73.5,123.7c1.8,1.8,2.3,14.8.6,15.9-.5.3-2.8,3.9-5,7.8l-4,7.2V140.1l-12.7,8.1c-7.1,4.4-13.8,8.7-15,9.5l-2.3,1.3v58.9l3.9,2.3,3.9,2.2-4.3,2.7-4.4,2.8-3.7-2a15.37,15.37,0,0,1-4.6-3.1c-.4-.7-.8-16.2-.8-34.4,0-30.2.2-33.4,1.8-35.2,2.9-3.3,41.4-27.2,43.9-27.2A4.9,4.9,0,0,1,689.21,127.6Zm-67.6,41.6c.7.7,1.2,4.3,1.2,9.4v8.1l-4.2,4.5a19.17,19.17,0,0,1-10.1,6.2l-5.8,1.7-6.7-3.8c-6.2-3.6-6.7-4.2-6.7-7.3s.5-3.6,13.5-11.7C616.21,168.1,619.31,166.9,621.61,169.2Zm59.2,38.8v28l-2.5-1.6-2.5-1.6V207.9c0-24.5,0-24.8,2.2-26.3a15.57,15.57,0,0,1,2.5-1.6C680.71,180,680.81,192.6,680.81,208Z"/><path d="M608.11,184.9c-2.4,1.4-4.3,2.9-4.3,3.2,0,.9,8.1,6.1,8.6,5.6.3-.3.4-2.9.2-5.9l-.3-5.4Z"/><path d="M945.81,4c-1.7,1.7-2,3.3-2,12,0,5.5.4,10,.8,10s2.8-1.4,5-3l4.2-3V30h18.9c13.9,0,19.1.3,19.9,1.2,1.2,1.6,1.5,3.5,1.3,11.2-.1,4.7-.4,5.7-1.3,4.8s-1.9-.5-4.5,2l-3.3,3.2V40h-31.9l8.7,12.4,8.7,12.5h7.3l7.2.1V167h-18.5c-23.2,0-22.5-.4-22.5,13.5,0,5.2.4,9.5.8,9.5s2.7-1.6,5-3.6l4.2-3.6V194h38.1l1.2,2.9c.7,1.5,1,5.3.9,8.4-.3,4.4-.7,5.5-1.9,5-.8-.3-2.8.4-4.4,1.6l-2.9,2.2V204h-15.6c-8.6,0-15.4.3-15.2.8s3.9,5.1,8.3,10.4l8,9.7,7.3.1h7.2V337h-18.9c-23,0-22.1-.6-22.1,13.7,0,5.1.4,9.3.8,9.3s2.7-1.6,5-3.6l4.2-3.6V364h99V347h-18.2c-10.1,0-19-.5-19.8-1-1.3-.8-1.6-10.4-2-73.5-.3-40-.1-73.6.3-74.8a6,6,0,0,1,2-2.9c.7-.4,9.4-.8,19.5-.8h18.2V176h-9.4l4.4-4.5,4.4-4.5h-15.4V65h40V38.8l-6.7-11.2-6.8-11.1-.5,10.8c-.4,8.1-.9,11-2,11.7-.8.5-9.9,1-20.2,1h-18.8V167h9l-3.3,4.4c-3,4.2-3.5,4.5-7.8,4.5-2.7.1-5.1-.5-5.8-1.2-.8-1-1.1-21.7-1.1-71.8,0-65.4.1-70.5,1.7-71.6,1.2-.9,6.9-1.3,20-1.3h18.3V12l-6.7-.1c-3.8-.1-5.9-.4-4.7-.6s4-2.4,6.4-4.8l4.4-4.5H1000C949.11,2,947.71,2.1,945.81,4Zm32.7,342.7a40.89,40.89,0,0,1-7,0c-1.7-.2,0-.4,3.8-.4S980.61,346.5,978.51,346.7Z"/><path d="M2817,3.6c-1.6,1.1-2.2,2.5-2.2,5.2-.1,3.3-1.3,5.1-12,16.7l-12,13V82c0,43.4,0,43.5,2.5,52,5.9,19.9,7,28.6,7,55,0,26.7-.8,32.9-6.5,52.6-1.7,5.6-3,12-3,14.3,0,4,.1,4.1,2.3,2.9,2.9-1.6,5.5-2,6.2-.9,1,1.7,5.2-1.3,8.7-6.4,6.3-8.9,7.8-12.1,7-15.2-.4-1.5-.5-10.9-.2-20.8s.7-17.2.8-16.3c.5,4.2,2.2,1,5.3-10.2l3.4-12.1.5,18.8.5,18.8,2.9-5.5c1.6-3,6.5-11.8,10.9-19.5,7.6-13.3,17.8-31.4,32.7-58,3.7-6.6,9.4-16.7,12.7-22.5s13.1-23.1,21.8-38.5,19.6-34.7,24.2-42.8,8.3-15,8.3-15.2-3.7-.5-8.2-.7l-8.3-.3,6-3.4c3.3-1.9,6.9-4,8-4.8,1.6-1.1-7.7-1.3-57.6-1.3C2826.51,2,2819,2.2,2817,3.6Zm7.5,103.1c-.1,14.8-.2,2.7-.2-26.7s.1-41.5.2-26.8S2824.71,92,2824.51,106.7Zm79.7-75.1c2.4,2.3,2.1,3.3-3.5,12.5-2.8,4.6-4.9,7.6-4.6,6.7,1-2.8-.7-2.9-5.6-.2-2.6,1.3-4.7,2.2-4.7,1.9s1.4-3.2,3-6.5l3-6h-40V65h17.9l-9,16-9,15.9.3,7.1.3,7,6.5-11.5c3.5-6.2,6.6-11.3,6.7-11.1s-.9,4.9-2.2,10.6-2.2,10.6-2,10.9,1.2-.2,2.2-1c1.4-1.1,1.3-.7-.4,2.1-1.1,1.9-4.4,7.6-7.2,12.6s-5.8,9.5-6.7,9.8c-2,.8-5.6-.2-6.6-1.8-.4-.6-.8-23-.8-49.8,0-42.9.2-48.8,1.6-50.2s5.5-1.6,30.4-1.6S2902.91,30.2,2904.21,31.6ZM2816,173.9c-.8,3.7-1,1.4-.9-11.4v-16l.9,11.4C2816.61,165.1,2816.61,170.9,2816,173.9Z"/><path d="M3296.31,3.5c-19,3.6-36.7,13.9-47,27.3-2.2,2.9-9,9.1-15.2,13.8-23.3,17.7-33,32.6-34.8,53.9-.7,8.4,1.2,20.5,4.7,29.1,7.7,19,24.5,34.4,45.6,41.7,8,2.7,10.3,3,28.7,3.8,11,.5,23.6,1.6,28.1,2.4,32.1,6,58.2,25.4,72,53.5,10.2,20.6,11,48.9,2.1,71.3-3.7,9.5-12.8,23.8-17.9,28.3-10.1,8.9-54.1,11.3-79.8,4.3-10.4-2.8-28.1-11.8-36.3-18.3-6-4.8-7.1-5.4-8.8-4.3a6.49,6.49,0,0,0-2.5,3.4c-.4,1.3-.9,2.3-1.4,2.3-1.1,0-11.1-10.8-15.2-16.5-7.3-10.2-13.8-25.9-15.3-37.1-1.5-12.2-1-11.3-6.8-11.6l-5.2-.3,4.7-4.8,4.7-4.7h-10.5c-5.8,0-11.4.5-12.5,1-1.8,1-1.8,1.2,1.1,3.7,3.9,3.2,5.5,7.1,6.3,15.1a102.83,102.83,0,0,0,3.7,15.5c15.2,45.1,47.4,73.6,95.9,84.8,12.7,3,43.7,3.7,58.9,1.5,28.6-4.2,53.3-15.7,72.5-33.6,14.9-14,25.2-30.5,32.8-53l4.3-12.5V243l.1-20.5-3.4-10.5c-6-19.1-15.1-35.3-26.5-47.7l-6.3-6.8,2.9-2.3c1.5-1.3,2.8-3,2.8-3.8,0-3.5-20.3-17.5-36-24.8-19.1-8.8-31.6-11.4-59-12.6-23.2-.9-29.6-2.2-37.7-7.7l-3.7-2.5-3.1,3.5-3.1,3.6-4.1-3.7c-4.7-4.3-10.3-12.9-12.5-19.2-5.4-15.2-1.5-31.5,10.2-43,11-10.8,22.9-15,43-15,19.5,0,29.9,3.7,40.6,14.4,6.8,6.9,11.1,14.4,12.1,21.1l.6,4.5h8.8c8.8,0,8.9,0,8.9-2.5,0-8.1-8.9-26.8-16.8-35.2l-3.9-4.1,2.6-.5a14.82,14.82,0,0,0,4.6-2.1c2-1.5,2-1.6-1-4.1a88.36,88.36,0,0,0-38.5-18.1C3325.41,1.7,3305.51,1.8,3296.31,3.5Zm-48.6,91.2c5.9,15.1,15.4,26.8,28.1,34.4,14.6,8.6,27.2,11.9,46.2,11.9,37.8,0,66,11.4,88.9,35.8,16.9,18,24.3,35.7,25.3,60.9.3,6.5.3,10.7,0,9.3-1.3-6.6-2.6-9-4.7-9-3.7,0-4.5-1.3-5.6-8.1-4.6-28.4-23.3-53.4-50.1-66.9-15.9-8-28.6-10.7-56.5-12-13.5-.6-23.2-1.5-27-2.5-19.4-5.2-42-23.5-50.4-40.6-4.5-9.3-6.9-17.6-7.3-25.8l-.3-5.5,3.8-.9c2.8-.7,3.9-1.5,4.4-3.6.6-1.9.9-.2,1.4,5.9A60.41,60.41,0,0,0,3247.71,94.7Zm185.8,172.5c-.3.8-.6.5-.6-.6s.2-1.7.5-1.3A2,2,0,0,1,3433.51,267.2Zm-1.7,5.5c-1.1,1.7-1.1,1.7-.6,0a30.13,30.13,0,0,0,.7-3c0-.9.2-.9.5,0A3.9,3.9,0,0,1,3431.81,272.7Zm-165,63.8c1.4.8,2.1,1.4,1.5,1.4a11.09,11.09,0,0,1-3.5-1.4c-1.4-.8-2-1.4-1.5-1.4A10.26,10.26,0,0,1,3266.81,336.5Zm6,2.5c.8.5,1.1,1,.5,1a6.8,6.8,0,0,1-2.5-1c-.8-.5-1-1-.5-1A6.21,6.21,0,0,1,3272.81,339Zm10.7,3.6a2,2,0,0,1-1.9.1c-.8-.3-.5-.6.6-.6S3283.91,342.3,3283.51,342.6Zm4,1a2,2,0,0,1-1.9.1c-.8-.3-.5-.6.6-.6S3287.91,343.3,3287.51,343.6Z"/><path d="M2596.81,4.1a191.14,191.14,0,0,0-77,25.9c-31.7,19.2-58.9,49.6-72.9,81.4-2.2,5-7.1,15.2-10.9,22.6-12.1,23.9-17.7,44.9-19.1,71.4-1.3,23.8,1.2,42.8,8.2,64.7a124,124,0,0,1,4.2,16.4c.4,3.3,1.2,6.9,1.8,8a38,38,0,0,1,1.9,5.5c.5,1.9,1,4.2,1.2,5a55.55,55.55,0,0,0,2.5,6.2c1.1,2.7,1.9,4.8,1.7,4.8s1.6,4.6,3.9,10.2c6.1,14.2,11.9,19.6,16.9,15.7,3.3-2.6,8.6-10.2,8.6-12.4a12.66,12.66,0,0,1,1.5-4.4,27.83,27.83,0,0,0,1.9-5.2,46.52,46.52,0,0,1,1.6-5.7c1.1-3,1-3.6-1.2-6-5.2-5.7-19.3-28.7-24.8-40.4-7.1-15.2-13.9-38.8-15.9-54.9-1.7-13.1-1.6-13.6,2.3-15,4.4-1.6,5.6-4.3,5.8-13.7,0-4.2.5-.1.9,9.3,1.1,25.9,6.1,46.9,16.7,69.7,3.6,7.8,13.3,24.4,17.4,29.7l1.8,2.3,1.9-4.3c1-2.4,13.8-28.5,28.3-57.9s36.1-72.9,47.8-96.5,30.3-61.3,41.5-83.7l20.3-40.6-3.2.3c-5.4.7-14.6,1.4-14.6,1.1,0-.1,3.2-2.4,7-5a67,67,0,0,0,7-5.2C2611.81,2.8,2605.41,3.1,2596.81,4.1Zm-17.2,33.1c2.1,2.1,1.3,5.7-3.3,14.1-2.5,4.5-4.5,7.6-4.5,6.9,0-2-2-1.4-7.1,2.3l-4.8,3.4,3.4-7.1c1.9-4,3.3-7.3,3.1-7.5-.5-.6-9.7,3.2-17.8,7.3-16.7,8.4-34.3,22.1-44.8,34.7-3.3,4-6,7.5-6,7.9s2.9-1.5,6.5-4.2a153.71,153.71,0,0,1,27.1-16.1c7.4-3.4,21.4-8.2,22-7.6.2.2-17.4,36.3-39.1,80.2-35.9,72.4-45.2,92-36.3,76.5,1.7-3,4.1-7.2,5.3-9.2l2.1-3.7-.4,9.1c-.3,6.4-.1,8.9.6,8.4s-.8,3.5-3.2,8.5c-4.6,9.6-5.7,10.9-9.3,10.9-3.4,0-5-2.4-8.3-12.7-12.4-38.8-9.7-84.3,7.2-117.7,8.9-17.7,17.1-28.9,31.3-43.1,19.4-19.4,36.2-30.3,59.4-38.6C2574,35.9,2577.71,35.3,2579.61,37.2Zm-137.1,120c-.3.8-.6.5-.6-.6s.2-1.7.5-1.3A2,2,0,0,1,2442.51,157.2Zm-1,6c-.3.7-.5.2-.5-1.2s.2-1.9.5-1.3A5.28,5.28,0,0,1,2441.51,163.2Zm-1,8.5c-.3,1-.5.2-.5-1.7s.2-2.7.5-1.8A10.28,10.28,0,0,1,2440.51,171.7Z"/><path d="M1702.51,8.1c-1,.6-10.5,18.7-21.1,40.2-46.3,93.9-95.8,194.1-113.5,229.7-10.6,21.2-19.8,39.9-20.6,41.6l-1.3,3.2,5.1-1.4a54.58,54.58,0,0,1,5.9-1.4c.4,0-.2,2.1-1.4,4.7l-2.1,4.7,2.4,1.9c4.7,3.8,21.1,13,30.1,16.9a202,202,0,0,0,39.7,12.5c11.3,2.4,14.7,2.7,33.1,2.7,17.5,0,22.2-.3,32-2.3,53.7-10.7,96.2-41.3,121.7-87.6,4.1-7.4,15.3-33.7,15.3-35.8,0-.3-3.5-.7-7.7-.9l-7.7-.3,6.8-4.5,6.8-4.5-86.7-.3-86.7-.2-5.9,3.6c-3.2,2-5.9,4.3-5.9,5,0,1.1-1.9,1.4-7.9,1.4-8.5,0-11.1-1.2-11.1-5.2,0-1.1,8.3-18.7,18.4-39.1,29.7-60.2,58.8-119.2,66-133.9,3.7-7.6,7.4-14.4,8.2-15.3,2.6-2.6,7-1.7,17.2,3.4,27.9,14.1,55.7,42.1,69.9,70.6a109.11,109.11,0,0,1,5.2,11.7c.7,2.1,1.8,3.8,2.5,3.8,1.2,0,13.7-4,14.5-4.6.6-.5-3.8-10.9-8.7-20.9a171.52,171.52,0,0,0-31-43.6l-6.3-6.7,5.1-1.2,5.1-1.2-2.3-2.5c-8.5-9.2-31.5-25-47-32.2-7.8-3.7-32.9-13.3-34.1-13.1A16.53,16.53,0,0,0,1702.51,8.1Zm95.7,248.5c2,2,2,5.8,0,7.4a40,40,0,0,0-4,5.6c-1.6,2.8-3,4.1-3.9,3.7s-4.4,1.1-8,3.1l-6.6,3.6,3.9-5.3a84.87,84.87,0,0,0,5.1-7.5l1.2-2.2h-168.7l-13.8,27.1c-7.6,14.9-13.6,27.2-13.4,27.3s1.9,1.2,3.8,2.4c3.4,2,3.9,2.2,6,2.2,2.4,0,.7,1.7-3.2,3-5.3,1.9-5.7,3.2-1.6,5.2,1.8.9,2.9,1.7,2.3,1.7s-5-2.1-10-4.7c-7.6-4-9-5.1-9.3-7.4-.4-3.2,28.6-62.3,31.9-65.1,2-1.6,8-1.7,94.4-1.7C1786.91,255,1796.81,255.2,1798.21,256.6Zm-28,29.6c-6.2,7.5-21,20.3-30.6,26.4-13.5,8.7-34,17.4-48.8,20.8-18.6,4.2-42.2,4.4-61.2.6-9.6-2-22.8-6.5-22.8-7.9a36.1,36.1,0,0,1,2.1-4.6c3.8-7.1,13.2-14.7,16-12.9.5.3.9.1.9-.3s1.8-.8,3.9-.7c2.5.1,4.2-.3,4.5-1.1s2.9-1.6,6-2,5.4-1.1,5.1-1.5,1.1-1.1,3-1.4,3.3-1.1,3-1.7.2-.9,1.2-.9c3.2-.1,5.8-2.4,5.8-5.3.1-2.3-.3-2.7-2.5-2.7s-11-5.3-11-6.6c0-.2,28.6-.4,63.7-.4h63.6ZM1606.81,337c.8.5,1.1,1,.5,1a6.8,6.8,0,0,1-2.5-1c-.8-.5-1-1-.5-1A6.21,6.21,0,0,1,1606.81,337Zm35.7,8.6a2,2,0,0,1-1.9.1c-.8-.3-.5-.6.6-.6S1642.91,345.3,1642.51,345.6Z"/><path d="M2244.91,8.6c-1.4,1-10,17.2-23.3,44.3-11.6,23.4-35.8,72.5-53.8,109.1s-37.8,76.6-44,89c-14.4,28.9-35,70.9-35,71.4s9.5-2,11-2.9c.7-.4.5.6-.4,2.4-4.2,8-4.4,7.4,5.3,13.5,39.6,25,87.2,34,131.9,25.1,20.4-4.2,45.2-14.6,64.2-27.2,21-14,42.9-38.2,55.6-61.8,3.3-6.1,14.4-32.4,14.4-34.1,0-.2-3.5-.4-7.7-.6l-7.7-.3,6.9-4.8,6.9-4.7h-173.9l-6.3,4.1c-3.4,2.2-6,4.4-5.7,4.9.8,1.4-14.1,1.3-16.6,0a4.45,4.45,0,0,1-1.9-3.8c0-2.8,17-38,64.9-134.2l27.6-55.5,3.6-.3c4.5-.4,18.9,6.7,31,15.4,10.6,7.5,28.4,24.6,36.4,34.9,7.4,9.5,16,24.5,19.5,33.8,1.7,4.7,3,6.7,4.2,6.7,1.9,0,12.9-3.8,14.1-5s-5.9-16.7-14.1-30.4c-7.1-11.8-12.9-19.6-24.6-33.1l-4.4-5.1,4.1-2.3,4.1-2.4-4.9-4.4c-19.3-17.1-38.2-28.3-64.7-38.2-7.5-2.8-13.8-5.1-14-5.1A13.7,13.7,0,0,0,2244.91,8.6Zm96.3,249.7c.7,2,.7,3.3-.2,4.5-.6.9-2.4,3.8-3.8,6.3-2,3.3-3.2,4.5-4.5,4.2-1-.3-4.3.8-7.3,2.5s-5.6,2.8-5.6,2.6,1.8-2.9,4-6,4-6.1,4-6.6-38-.8-84.5-.8h-84.5l-.9,2.3c-.5,1.2-6.4,13.4-13.1,27s-12.1,25-11.9,25.1c1.2,1,4.9,1.6,4.9.7,0-1.6,9.9-11.1,11.8-11.3,3.1-.2,3.7-.3,4.7-.9a11.2,11.2,0,0,1,4.2-.4c1.9.2,3.4-.3,3.7-1.1s3-1.6,6.5-2c3.3-.3,5.9-1,5.6-1.4s.9-1,2.6-1.4,2.8-1,2.4-1.6.2-1,1.2-1c3.2-.1,5.8-2.4,5.8-5.3.1-2.3-.3-2.7-2.6-2.7-1.6,0-4.4-1.4-6.9-3.5l-4.2-3.5H2244l71.3.1-10.3,10a154.59,154.59,0,0,1-75.6,40.1c-8,1.7-13.7,2.1-27.6,2.2-20.2.1-33.3-2-49-7.8-8.3-3.1-9.4-3.3-12.3-2.2-1.8.7-4,1.6-5.1,2-1.5.5-1.6.9-.6,2.1.8.9-1.5.3-5.6-1.5-3.8-1.7-7.2-3.7-7.6-4.3-1.7-2.7-.5-7.7,3.8-16.2,2.6-5,9.3-18.3,14.9-29.6s11-21.3,12-22.2c1.5-1.6,8.5-1.7,94.8-1.5l93.2.3Zm-163.7,86.3a2,2,0,0,1-1.9.1c-.8-.3-.5-.6.6-.6S2177.91,344.3,2177.51,344.6Z"/><path d="M2973.51,8.5c-.8.7-2.9,4.3-4.8,8s-3.6,6.5-4.1,6.5-.6.5-.2,1.2.3.9-.2.6-5.5,3.7-11,9.1L2943,43.5l-76.1,137.2-76.1,137.2v35c0,35.3,1,49.1,3.6,52.2a4.79,4.79,0,0,1,1.4,2.6c0,1.7,6,6.4,9.3,7.4a35.82,35.82,0,0,0,7.9.9c4.9,0,13.8-1.9,13.8-3,0-.4,2.3-1.3,5-2s5-1.9,5-2.7a1.35,1.35,0,0,1,1.4-1.3c2.4,0,6.9-2.7,5.4-3.3q-1.35-.6.3-.6c1.9-.1,3.1-2.4,2.3-4.5-.3-.8-1.9-1.8-3.5-2.1s-2.9-1.1-2.9-1.6-.8-.9-1.8-.9a8,8,0,0,1-3.8-1.5c-1.7-1.3,2.3-1.4,34.6-1.5,57.7-.1,73.2-1.7,97.4-10,10.9-3.8,36.3-15.6,35.4-16.5-.2-.2-4,.7-8.3,2.1s-12.3,3.4-17.5,4.6c-9.2,2.1-11.9,2.2-83.8,2.5-56,.3-74.7.1-75.8-.8-.9-.8-1.4-3.2-1.4-7.5,0-5.3.3-6.4,1.9-6.9,1.1-.3,3.4-2.2,5-4.1l3.1-3.5V364h63.8c37.3,0,67.3-.4,72.2-1,48.9-5.9,93.4-31.5,120.1-69.1,23.9-33.7,37.1-79.3,33.8-117.1-1-12.1-1.1-12.5-5.5-28.8-8.6-32.1-23.3-59.2-43.5-80.5-5.5-5.7-6.7-7.5-5.2-7.5a20.23,20.23,0,0,0,5.2-1.1l3.3-1.2-3.9-3.9c-15.6-16.2-46.1-34.3-72.2-42.8C2979.51,6.7,2975.81,6.2,2973.51,8.5Zm24.8,33.4c8.8,3.4,22.2,11,31.5,17.9,28.3,21.1,49.6,49.4,58.8,78.3,5.6,17.4,10.4,47.2,7.1,44.1-.7-.6-3-1.2-5.1-1.2-3.7,0-3.8-.1-3.8-3.8-.1-13.6-11.4-48.3-20.1-61.2-.9-1.4-4.3-6.5-7.4-11.3-12-18.5-34-37.8-55.3-48.4-9.3-4.6-11.5-5.4-12.3-4.2-4.9,7.8-16,30.4-15.1,30.7.6.2,6,3.6,11.9,7.5,20.7,13.6,40.7,36.4,52.2,59.3,11.6,23.2,17.2,52.4,15.1,78.5-2.1,25.7-9.2,47.1-22.4,67.4-9.4,14.3-14.5,19.7-23.3,24.2a183.39,183.39,0,0,1-39.8,14.5c-9.2,1.9-13.9,2.1-59.1,2.5l-49.2.5-3.3,3.4c-2.2,2.2-3,3.7-2.3,4.4s16.4,1.1,40.9,1.3c38.9.2,38.8.3-6.3.2-44.7,0-46.4-.1-47.8-1.9-1.1-1.6-1.4-6.4-1.4-22.9V300.8l13.6-24.6c7.5-13.6,18.9-34.2,25.4-45.7,12.2-21.7,37.8-67.8,48.3-87,3.3-6.1,11.7-21.1,18.6-33.5s18.2-32.8,25.1-45.5c8.4-15.4,13.3-23.3,14.9-24.1C2990,39.2,2991.91,39.5,2998.31,41.9Zm96.2,178.3c-.3.8-.6.5-.6-.6s.2-1.7.5-1.3A2,2,0,0,1,3094.51,220.2Zm-2,9c-.3.8-.6.5-.6-.6s.2-1.7.5-1.3A2,2,0,0,1,3092.51,229.2Zm-2.8,9.7c-.7,2.3-1.4,3.9-1.6,3.7s.1-2.3.8-4.5,1.4-3.9,1.6-3.7S3090.41,236.7,3089.71,238.9Zm-265.2,94.8c-.1,6.5-.3,1.2-.3-11.7s.2-18.2.3-11.8S2824.71,327.3,2824.51,333.7Z"/><path d="M2658.51,10.1c-.9.6-4,5.6-6.8,11.1a147.24,147.24,0,0,1-10.4,17.2c-3.9,5.2-17.2,31.2-50.6,98.6-56.8,115-78.9,159.8-94.4,191.7L2484,353.8l6.3,4.3c6.2,4.2,6.3,4.2,5,7.3-2.7,6.8.6,15.3,9.5,24.5,3.3,3.3,6.1,6.1,6.3,6.1s3.5,1.1,7.3,2.5c7.6,2.8,8.8,3,7.9,1.5-.4-.7.2-.7,1.8-.1,1.4.6,2.7.8,3,.5s2.6,0,5.3.6c4.2.9,5.4.8,8.9-1,2.1-1.1,3.6-2,3.1-2s.2-.9,1.5-2,1.8-1.9,1.1-2-1-.5-.6-1.1c.7-1.2-3.2-4.9-7.9-7.5s-2.5-2.6,5.3-.5c25.8,7.2,65,7,90.7-.5,18.3-5.3,38.5-14.5,52.8-24,9.5-6.3,10.1-7.1,3-3.8-9.6,4.4-32.8,12-44.4,14.5-9.6,2.2-13,2.4-35.1,2.4-27.7,0-34.1-.9-54.5-7.5-20.9-6.7-34.3-13.2-52.3-25.2-9.4-6.3-10.3-8.1-6.8-14,2.4-4.1,3-4.5,8.1-5.5,4-.7,5.5-.7,5.1.1-.2.6-1.1,2.8-2,4.9l-1.6,3.7,8.4,5.4c46.3,29.9,104.8,36.7,155.9,18.2,31.5-11.4,60-32.1,78.4-56.9,25.6-34.3,37.3-68.2,37.3-107.6,0-20.8-2.4-35.8-8.9-55.6a181.8,181.8,0,0,0-41.4-68.2l-7-7.2,3.9-.7c7-1.2,7-1.6.5-7.7-16.4-15.1-41.4-29.4-66.2-37.7C2661.81,8.7,2661.11,8.6,2658.51,10.1Zm28.6,37.5c13.4,6.7,27.6,17.2,40.2,29.9s19.4,21.2,26.5,34c9.5,17.3,14.8,33.5,18,55.6,1.8,12.9,2.8,36.5,1.1,27.9-1-5.2-1.9-6.2-4.1-5-4.2,2.3-4.8,1.4-5.5-7.8-3.8-53.5-30.8-96.9-76.2-122.8a78.74,78.74,0,0,0-8.5-4.4c-.9,0-14.3,25.9-14.3,27.6,0,.6,5,4.4,11,8.4,24,15.9,44.8,41.6,55.6,68.5,16.9,42.4,12.8,93.6-10.6,131.1-11.2,17.9-43.6,36.5-76,43.6-8.2,1.8-13.2,2.2-28.5,2.2-21.1,0-30.1-1.3-46.9-7.1-10.1-3.5-10.5-3.5-15-2.1-3,1-4.6,2-4.5,3,.1,1.3-1.1,1-6.5-1.4-3.6-1.6-6.9-3.5-7.3-4.1-1.7-2.7-.4-6.7,7.7-22.5,4.7-9.2,17.1-34.3,27.6-55.7Q2669.16,46.4,2671,44.2C2672.91,41.9,2677.81,43,2687.11,47.6ZM2557.81,335c.8.5,1.1,1,.5,1a6.8,6.8,0,0,1-2.5-1c-.8-.5-1-1-.5-1A6.21,6.21,0,0,1,2557.81,335Zm33.7,9.6a2,2,0,0,1-1.9.1c-.8-.3-.5-.6.6-.6S2591.91,344.3,2591.51,344.6Zm7.6,1.1a5.28,5.28,0,0,1-2.5,0c-.7-.3-.2-.5,1.2-.5S2599.71,345.4,2599.11,345.7Z"/><path d="M1666.31,19c-.4,1.4-15.1,31.3-32.5,66.5-31.6,63.7-53.3,107.7-90,182-10.6,21.4-19.9,39.8-20.8,40.7a6.56,6.56,0,0,1-4.8,1.8c-2.9,0-3.8-.7-7.2-5.8-2.1-3.1-5.6-8.6-7.7-12.2a105.83,105.83,0,0,0-5.8-9l-1.9-2.5.7,2.3c.4,1.3.8,3.4,1,4.5.5,4.2,6.5,23.8,8,26.1.8,1.2,1.2,2.6.8,2.9s-.1.7.6.7,1,.3.7.8.6,3.2,2,6.2a38.35,38.35,0,0,1,2.4,7.2c0,.9,1.8,3.6,3.9,5.8s3.9,4.5,3.8,4.8,1.2,1.1,2.7,1.7a5.87,5.87,0,0,0,5.3-.5c1.5-.8,2.5-1.7,2.3-2s.9-2.5,2.6-5,4.5-9.2,6.4-15a94.27,94.27,0,0,1,5.2-13.6c1-1.7,1.5-3.3,1.2-3.7s-.1-1.4.5-2.5a18.84,18.84,0,0,0,1.6-5.2,15,15,0,0,1,2-5.3,4.66,4.66,0,0,0,.9-3.1c-.3-.7,0-2.4.5-3.8.7-1.8.6-2.9-.2-3.7s-.8-1.1.5-.6,1.6.1,1.4-1.9c-.2-1.4.1-2.6.6-2.6s.6-.5.3-1-.2-1,.4-1c1.3,0,5.4-7.8,4.6-8.9-.2-.5,12.4-26.9,28.1-58.7s40.8-82.7,55.6-112.9l27-55-.2-6.5a87.71,87.71,0,0,0-.9-10.5C1667.21,16.8,1667.11,16.7,1666.31,19Zm-110.4,249.7c-1.1,2.1-2,3.5-2.1,3.1,0-1.2,3.3-7.8,3.8-7.4C1557.81,264.6,1557,266.5,1555.91,268.7Z"/><path d="M1411,157c-.1,129.8-.1,135.5-1.9,136.8a5.82,5.82,0,0,1-3.8.9c-1.1-.2-33.7-21.4-72.5-47.2q-166.95-110.85-194.9-129.2l-17.3-11.4,3,5.3c1.6,2.9,3.8,6.7,4.8,8.4,2,3.6,7.3,7.3,47.9,34,82.3,54.1,208.5,138.5,208.5,139.4a1,1,0,0,1-.9,1c-1.8,0-1.8,5.1,0,8.5,1.1,1.9,1.7,3.5,1.4,3.5-.6,0,4.7,6.2,8.2,9.5a25.2,25.2,0,0,0,6.4,4c3.7,1.7,4.4,1.7,6.8.4,1.8-1,2.9-2.8,3.6-5.6.8-3.4,1.3-4,2.5-3.3a6.13,6.13,0,0,0,2.3,1c.4,0,.7-62.4.6-138.8V35.5l-2.4-7-2.3-7Z"/><path d="M3299.41,41.1c-9.8,2.3-19.5,9.8-24,18.6-2.4,4.8-2.1,5.3,3.9,5.3,12.8,0,24,4.6,32.1,13.2,6.3,6.6,9.2,12.1,10.6,19.9l1,5.9h13.1c9.7,0,13.4-.4,14.6-1.4.9-.8,8.8-6.2,17.5-12l16-10.6h-10.6c-7.2,0-10.9-.4-11.6-1.3-.5-.6-1.4-4-2-7.4-2.6-15.2-14.1-26.8-30-30.2C3323.81,39.8,3305,39.8,3299.41,41.1Z"/><path d="M1706.21,83.7c-30.6,62.6-51.8,105.5-60.9,123.5-5.2,10.3-9.5,18.9-9.5,19.2s2.2.6,4.8.6h4.9l36.9-75c35.9-73.1,36.9-75.1,39.4-74.5,8.8,2.2,31.5,17.5,43.9,29.7a149.45,149.45,0,0,1,35,53c1.4,3.6,2.9,6.7,3.4,6.8,1.1.2,23.1-7.1,24.1-8.1.9-.8,2.9-21,2.2-21.6-.2-.2-5.4,1.5-11.6,3.7-16,5.7-17.5,5.5-20-2.5-2.3-7.6-13.1-28-19.5-37-7.8-10.8-20.1-23.6-30.4-31.4-7.9-6-24.8-16.1-26.9-16.1C1721.31,54,1714.21,67.4,1706.21,83.7Z"/><path d="M2262.11,56.2c-.6,1.3-3.1,6.7-5.6,12l-4.6,9.7,8.2,4.5A150,150,0,0,1,2327,156c1.9,4.7,3.8,9.3,4.1,10.2.5,1.4,2.1,1.1,13.4-2.8,7-2.5,12.9-4.8,13.1-5.2s2.6-4.8,5.6-9.8c3.2-5.4,4.8-9,4.1-9.2s-4.7,1.1-8.9,2.8c-12.3,4.8-14.6,4.1-18.1-5.5-2.4-6.7-10.8-23.5-15.2-30.4s-14.4-18.9-21-25.3c-10.1-9.7-35.6-26.8-40-26.8C2263.51,54,2262.61,55,2262.11,56.2Z"/><path d="M1109.81,137c-2,2-2,3.3-2,111.7,0,71.3.4,109.3,1,108.3s1-39.3,1-103.3c0-86.6.2-102.3,1.4-105.2.8-1.9,1.7-3.5,2-3.5s1.2,1.3,2.1,3c1.1,2.2,1.5,6.3,1.5,16.5,0,8.8.4,13.4,1,13s1,30.8,1,92.9V364h17V277.1c0-79.3.1-87.1,1.6-88.6,3.1-3.1,6.7-1.2,43.9,24,9.9,6.7,63.6,42.6,119.3,79.9l101.2,67.7V337.5l-4.8-3c-4.4-2.8-4.6-3-2.1-3.3a9.75,9.75,0,0,0,5-2.8c2.2-2.4,2.2-2.4.3-3.9a59.38,59.38,0,0,0-6.4-4.2c-7.3-4.3-92.8-60.8-170.5-112.7-81.2-54.1-109.4-72.6-110.6-72.6A7,7,0,0,0,1109.81,137Z"/><path d="M3221.31,156.9a1.22,1.22,0,0,0,.5,1.6c.5.3,1-.1,1-.9C3222.81,155.8,3222.21,155.5,3221.31,156.9Z"/><path d="M489.81,188.9c0,11.9-.2,13.1-1.9,14.1-1.2.6-9.5,1-20,1h-18.1V337h10.4l-3.4,3.5c-4.6,4.7-3.3,5.8,6.4,5.3,7.4-.3,7.6-.4,12.1-4.8l4.5-4.4V225h39V198.5l-8.3-6.5c-4.5-3.6-11-8.6-14.4-11.3l-6.3-4.8Z"/><path d="M1062.81,190.8c0,7.1-.4,11.2-1.2,12s-6.8,1.2-20.5,1.2h-19.3V337h9.1l-2.6,3.4c-3.7,4.8-1.9,5.9,8.6,5.4,8.1-.3,8.2-.4,11.6-4.3l3.5-4-7.7-.3-7.6-.3.2-55.9.1-56h39.8V198.9l-6.6-9.5c-3.6-5.2-6.7-9.4-7-9.4S1062.81,184.9,1062.81,190.8Z"/><path d="M1145.81,286.9c0,66.9-.3,85.2-1.2,85.8-.7.4-7.1,1-14.2,1.3l-12.9.5,6.7,8.2c3.7,4.6,7.1,8.3,7.6,8.3s1,1,1,2.2c0,3.5,3.4,12.8,4.7,12.8a1.85,1.85,0,0,1,1.5,1.2c.3.7,2.3,1.3,4.8,1.3s4.5-.6,4.8-1.3a1.86,1.86,0,0,1,1.6-1.2c1.4,0,4.6-8.4,4.6-12.3,0-1.7.5-2.7,1.5-2.7,1.3,0,1.5-10.2,1.5-86,0-47.3.2-86,.5-86,.5,0,215.5,143.7,216.8,144.9s-2.5.6-5.8-.9a66.52,66.52,0,0,1-5.8-3.3c-1.6-1.1-3.1-1.6-3.4-1.3s-2.5-.5-4.9-1.9c-5.1-3-5.4-3-4.7-.5.3,1.1.9,1.8,1.3,1.5a1.1,1.1,0,0,1,1.5.5c.3.5,0,1-.7,1s-.3.7.9,1.5a6.07,6.07,0,0,0,3.5,1.3.76.76,0,0,1,1,1c-.3,1.5,2.1,4.2,3.7,4.2a1,1,0,0,1,1.1,1c0,.5.7,1,1.6,1s1.3.4,1,.8c-1,1.6,14,13.2,17.1,13.2a2.66,2.66,0,0,1,2,1.3c.4.7,3.4,2.9,6.6,4.8,4.4,2.7,6.6,3.4,9.2,3.1,3.8-.4,4.5-2.1,2-4.6a3.11,3.11,0,0,1-.9-2.9c.3-1-.2-1.8-1.4-2.1a9.11,9.11,0,0,1-3.7-3.2c-1.3-1.9.5-1.1,7.4,3.6,5,3.3,9.8,6.3,10.6,6.6,1.3.5,1.5-1.8,1.5-16.4,0-16.1-.1-17.2-2.5-22.3l-2.6-5.4.5,11.5c.6,13-.3,16.3-4.6,16.8-2.1.3-15.4-8.2-62-39.4-101.6-68.1-198-132.4-198.4-132.4C1146,202,1145.81,240.2,1145.81,286.9Zm244.5,87.1c.3.5.1,1-.4,1a1.1,1.1,0,0,1-1.1-1c0-.6.2-1,.4-1S1390,373.4,1390.31,374Z"/><path d="M3310,216.1c-4.4,2.2-7.1,4.3-9.2,7.4s-5.6,6-11.8,9.6c-26,15.6-28.2,17.8-28.2,28.1,0,10,6.9,16.8,17,16.8,5.3,0,6.6-.6,21.7-9.2l16.1-9.2-3.3-1.1a27.54,27.54,0,0,1-12.6-9.8c-2.4-3.3-2.9-5-2.9-9.8v-5.8l5.2-1.6,5.2-1.5c.1,0,.1,2.7.1,5.9,0,4.9.4,6.4,2.4,8.5,5.1,5.5,13.6,5.8,18.5.7,6.7-7,2.9-19.9-6.4-21.3-2.3-.3-2.1-.6,2.8-3.9l5.3-3.6-4.1-1.7C3320,212.3,3316.91,212.6,3310,216.1Z"/><path d="M3157.61,260.3l-15.8,10.2v5.6a103.35,103.35,0,0,0,1.5,14c6.2,35.8,30,67.1,64.1,84.7,19.1,9.7,33.2,13.7,55.2,15.2,27.3,2,51.5-1.3,73.5-10,9.9-4,21.2-9.6,17.2-8.6-14.9,3.8-59.2,3.6-74.8-.4s-37.6-14.2-50.1-23.1c-23.2-16.6-42.3-42.5-49.5-66.9-1.9-6.6-4.1-20.2-4.1-25.6,0-3-.3-5.4-.7-5.3S3166.21,254.7,3157.61,260.3Z"/><path d="M1829.51,263.3c-8.6,20-19.2,35-37.4,53.5-16.1,16.1-27.7,25.3-42,33.3-18.6,10.3-45.1,19.3-65.9,22.4-19.1,2.9-51.5,1.6-67.8-2.5-19.1-5-42.4-14.9-58.8-25.1-4.4-2.7-8.1-4.9-8.2-4.9s.4,3,1.3,6.7c1.5,6.5,1.8,6.9,7.7,11.2,5.8,4.1,6.2,4.6,5.2,7-2.8,7.4.2,15.7,8.8,24.7,9.9,10.3,11.2,10.8,34.8,12.9,3.3.3,6.3.8,6.7,1.1a1.23,1.23,0,0,0,1.4-.5c.3-.6,1.3-.7,2.2-.4s1.4.2,1.1-.3,1.3-.9,3.7-.9c2.7,0,5-.7,6.2-1.8,1.1-.9,2.3-1.4,2.6-1s.7.2.7-.4c0-1.4-4.2-4.8-8.4-6.8-2-1-3.6-2.1-3.6-2.6s-.7-.9-1.5-.9-1.5-.4-1.5-.8-1-1.4-2.2-2.1c-1.4-.7-1.5-.9-.5-.6,14.8,4.2,39.6,6.5,59.2,5.4,34.8-2,71.6-16.4,100-39.2l5-4-4.7,4.7c-2.7,2.6-4.8,5.1-4.8,5.5s-1.6,2.3-3.5,4.2-3.5,4-3.5,4.6-.4,1.3-.9,1.3-1.6,1.2-2.6,2.6l-1.6,2.5,2.4-1.5c1.3-.9,2.6-1.4,2.9-1.1.8.8,9.2-3.2,12-5.8,1.3-1.3,3-2.1,3.6-1.9s1.2-.1,1.2-.7a1.27,1.27,0,0,1,1.4-1.1c1.5,0,12.8-12.4,12-13.2-.2-.3.2-1.1,1.1-1.8a4.8,4.8,0,0,0,1.5-3.1c0-1.1.4-1.9.8-1.9,1.2,0,4.5-7.1,4.6-10,.1-1.5-.4-2.4-1.1-2.3-2,.4-1.6-.7,2.6-6.1,10.8-14.2,19.1-29.7,27.1-50.8C1834.71,255.2,1835.11,250.2,1829.51,263.3Zm-60.7,98a12.16,12.16,0,0,1-2.2,2.3l-2.3,1.9,1.9-2.3C1768,361.1,1768.81,360.5,1768.81,361.3Z"/><path d="M718.81,337.2c0,19.2-.4,33.9-1,34.8-.7,1.1-3.7,1.6-12.7,2l-11.8.5,8.5,6.5c4.6,3.6,9.1,7,9.9,7.6s1.7,3.7,2.1,8c.8,8.5,3.3,14,7.3,16.1s10.1,2,12.2-.1a5.32,5.32,0,0,1,2.9-1.6c.6,0,1.9-1.2,2.8-2.8,2.7-4.6,2.6-3.7,4.3-48.2.3-7.8.9-11.7,2.5-15.3,1.1-2.6,2.5-4.7,3.1-4.7s.7-.5.3-1.1a1.71,1.71,0,0,1,.7-2c1.1-.7,1.1-1.6.1-5.6-2.2-8.2-4.2-10.4-16.3-18.1-6.2-4-12.2-7.7-13.1-8.3C718.91,304,718.81,305.8,718.81,337.2Z"/><path d="M3072.11,315.6c-.8,2.2.5,3,2.3,1.2,1.4-1.4,1.4-1.6-.1-2.1A1.55,1.55,0,0,0,3072.11,315.6Z"/><path d="M2331.31,316a3.21,3.21,0,0,0,.2,2.5c.8,1.3,1.3,1.2,3.3-1l2.3-2.5h-2.6C2333.11,315,2331.61,315.4,2331.31,316Z"/><path d="M2318.81,331.6c-21.1,18.2-51.5,32.7-83.4,39.6-8.8,1.9-13.2,2.2-34.1,2.3-26.2,0-32.4-.7-49.5-5.7a204,204,0,0,1-55.7-25.3c-4.7-3.1-8.9-5.3-9.3-4.8-1.1,1.1-6,13.3-6,14.9,0,.7,2.7,3.1,5.9,5.4,5.5,3.8,5.9,4.4,5,6.7-2.8,7.4.2,15.8,8.8,24.9,7.2,7.7,13.7,11.1,22.2,11.8,3.7.3,6.8,1,7.2,1.8.6.8.9.9.9.1,0-1.2,8.9-1.1,10.9.1a1.15,1.15,0,0,0,1.6-.3c.3-.6,1.3-.7,2.2-.4,1.1.4,1.4.3.9-.6s-.1-1,1.8-.5c2.8.7,9.6-1.2,9.6-2.7,0-.6.5-.7,1-.4,1.9,1.2,1-1.4-1-2.8-1.1-.8-1.7-1.6-1.4-1.9s-.8-.9-2.4-1.3a12.41,12.41,0,0,1-5-2.5c-1.2-1.1-2.6-2-3.2-2a1,1,0,0,1-1-.8c0-.5-1-1.4-2.2-2.1-1.4-.7-1.5-.9-.5-.6,15,4.3,39.6,6.5,59.8,5.3,33.2-1.8,68.4-15.3,96.9-37,6.3-4.8,6.4-4.8,2.3-.8-2.4,2.2-4.3,4.4-4.3,4.9s-1.6,2.3-3.5,4.2-3.5,4-3.5,4.6-.4,1.3-.9,1.3-1.6,1.2-2.6,2.6l-1.6,2.5,2.4-1.5c1.3-.9,2.6-1.3,2.9-1s2-.2,3.7-1.1,3.1-1.3,3.1-.9,1.6-.8,3.5-2.5,4.3-3.1,5.2-3.1c1.7,0,15.3-13.4,15.3-15.2,0-.5,1.1-2.3,2.5-4s2.5-3.5,2.5-4.2a10.8,10.8,0,0,1,1.7-3.6,11.39,11.39,0,0,0,1.8-4.4,18,18,0,0,1,1-4c.7-1.6.6-1.7-1.3-.7-2.6,1.4-3.5,1.4-2.7.1C2327.31,324.4,2326.61,324.9,2318.81,331.6Zm-22,29.7a12.16,12.16,0,0,1-2.2,2.3l-2.3,1.9,1.9-2.3C2296,361.1,2296.81,360.5,2296.81,361.3Z"/><path d="M2729.81,335.1c-4.7,3.9-8.8,7.6-9.3,8.4-1.1,2,1.7,2,3.3,0,.7-.9,1.5-1.3,1.8-1,.7.6,3.3-1.5,2.8-2.4-.2-.3,1.1-1.7,2.9-3.1,2.5-1.9,8.5-9.2,7.3-8.9C2738.41,328.1,2734.51,331.3,2729.81,335.1Z"/><path d="M489.81,358.3c0,9.8-.4,13.8-1.2,14.4-.7.4-24.1,1-52,1.3l-50.8.5,14.2,8.2,14.1,8.3h34.8l-3.8,4.7c-2.5,3-3.4,4.8-2.5,5a2.14,2.14,0,0,1,1.2,1.7c0,1.8,4.3,5.6,6.4,5.6.9,0,1.5.4,1.2.9-.9,1.4,2.3,2.3,11.1,2.8,8.1.6,17.3-.9,17.3-2.8,0-.5.6-.9,1.3-.9,1.5,0,4.9-3.4,6.6-6.6.9-1.9.6-2.7-2.5-6l-3.5-3.9L500,391l18.3-.5.3-13.5.2-13.5-11.6-7.5c-6.4-4.1-13-8.3-14.5-9.3l-2.9-1.9Z"/><path d="M1062.81,360c0,10.8-.2,12-1.9,13-1.3.6-20.1,1-54.3,1h-52.3l8.5,8.5,8.5,8.5h17.2c13.2,0,17.3.3,17.3,1.3,0,.7-.9,1.8-2,2.5a4.11,4.11,0,0,0-2,2.7c0,.8-.5,1.5-1,1.5s-.5.9.2,2.2c2.1,3.7,5,6.8,6.5,6.8.7,0,1.3.4,1.3.8,0,2.7,17.9,4.2,26.4,2.3a17.07,17.07,0,0,0,6.5-3.5c1.5-1.4,3.2-2.6,3.8-2.6s1-.8.9-1.8a2.21,2.21,0,0,1,.7-2.3c1-.7-3.9-7.9-5.4-7.9a.92.92,0,0,1-.9-1c0-.6,7-1.1,17.8-1.2l17.7-.3.3-13.3.3-13.2-6.7-8a106.47,106.47,0,0,0-7.1-8C1063,348,1062.81,353.4,1062.81,360Z"/><path d="M892,373.2c-.7.7-10.7,1-29.9.9-16.7-.1-28.4.2-27.8.7s6.7,4.3,13.6,8.5l12.7,7.7,25.7-.7,25.7-.8-9.4-8.7C895.91,374.7,892.81,372.4,892,373.2Z"/></g></g></svg>