<svg xmlns="http://www.w3.org/2000/svg" viewBox="0 0 261.04 419.98"><g id="Camada_2" data-name="Camada 2"><g id="Emblems"><path d="M45,161.05c-1.94,14.58-18.58,24.19-24.9,28.47a43.61,43.61,0,0,0,11.15,1.86S22.46,232,.07,247.48c4.95,2.18,16.14,1.41,18.66-.35-6,26.7,9.48,48.08-4.07,74.49,7.14-1.47,19-8.45,23.39-18.14,5.1,10.56,6.82,30.4,1.07,48.2,10.62-4,20.27-9.86,27-20,0,12.06,19.84,34.35,18.72,51.58,5.78-5.17,12.32-10.34,14.62-17.81,9.75,20.93,20.26,24.37,23.7,54.52,16.41-16.65,31.79-26.7,40.63-62.88,3.67,5.17,12.43,13,12.43,13s13.8-13.21,15.62-38.48c2.72,2.3,11.31,11.65,11,19.53,14-16.94,21-32,21-52.69,8.63,10.33,16.8,9,20.24,9.62-12.49-16.51,8.83-43,1.08-71.49,5.23-.08,13.1-2.45,15.4-5.32-24.69-16.08-33.84-32-38.56-44,12.76,0,12.36-1,12-1,0,0-13.59-11.92-18.44-19.74-3.16-5.08-86.89-49-86.89-49Z" style="fill:#333
"/><path d="M33.56,218.6c.38,9.08,1.87,13.38,4.43,17.88a78.75,78.75,0,0,0-11,28.07C26,245.71,29.6,232.62,33.56,218.6Z" style="fill:#fff"/><path d="M228.8,218.6c-.38,9.08-1.88,13.38-4.43,17.88a78.75,78.75,0,0,1,10.95,28.07C236.45,243.89,233.58,229.53,228.8,218.6Z" style="fill:#fff"/><path d="M45.94,273.4c-.16,4.75-.43,9.43-.29,14.2a100.11,100.11,0,0,0,2.29,17.48c1.21,5.85,2.81,11.68,3.29,17.65A30,30,0,0,1,49,336.92a41,41,0,0,0,.41-14c-.93-5.86-2.75-11.54-4-17.35A70.75,70.75,0,0,1,45.94,273.4Z" style="fill:#fff"/><path d="M73.5,300.6A138.68,138.68,0,0,0,74.78,316,101.63,101.63,0,0,0,80,334.49c4,10.86,9,21.32,10.29,33-1.86-4.83-3.7-9.63-5.85-14.34-2.78-6.07-5.73-12.07-8-18.35A62.32,62.32,0,0,1,73.5,300.6Z" style="fill:#fff"/><path d="M103.19,305.81c-.41,5-1.12,9.93-1.21,15a72.08,72.08,0,0,0,2.52,19.39c3.34,12.62,10.31,23.65,15.19,35.64a47.37,47.37,0,0,1,4,17.63,77.13,77.13,0,0,0-6.16-14.5c-3.35-5.9-7-11.62-10.16-17.64-6.18-11.92-9.79-24.47-8.69-38A60.45,60.45,0,0,1,103.19,305.81Z" style="fill:#fff"/><path d="M215.64,271.31c3.27,10.64,3.4,21.85,1.56,32.78-1.74,10.29-4.88,21.79-11.7,29.93,5.13-9.36,7.58-20.54,9.26-31a126.94,126.94,0,0,0,1.64-17.41A136.56,136.56,0,0,0,215.64,271.31Z" style="fill:#fff"/><path d="M186.06,295.72c2.94,9.91,2.48,20.42.51,30.48s-5.48,19.95-11.18,28.38a284.82,284.82,0,0,0,7.69-28.44A159.32,159.32,0,0,0,186.06,295.72Z" style="fill:#fff"/><path d="M158,305.81a72.67,72.67,0,0,1,3.48,35.12c-2,13.36-7.68,26.12-14.44,37.7a170,170,0,0,1-9.52,14.8c3.74-10.89,8.81-21.28,12.81-32.06,4.51-12.14,7.77-24.6,8.25-37.6C158.81,317.75,158.26,311.81,158,305.81Z" style="fill:#fff"/><path d="M187.2,70.88a78.71,78.71,0,0,0,34.31-11.49c8.71-5.54,17.59-14.45,18.62-25,.57-5.81-1.31-12-4-17.09A37.44,37.44,0,0,0,231,9.82a24.52,24.52,0,0,0-2.81-2.77c-1-.83-2.49-1.59-3.26-2.7-2.12-3,3.66-1.3,4.75-1a37.55,37.55,0,0,1,7.76,3.49,43.3,43.3,0,0,1,11.91,10.49c14.46,18.33,10.27,43.46-2.22,61.57a92.16,92.16,0,0,1-22.35,22.4,94.09,94.09,0,0,1-15.69,9.2c-5.43,2.48-11.5,4.7-17.47,5.35-11.23,1.24-21.73-6.64-24.23-17.54a22.85,22.85,0,0,1,11.51-25,22.07,22.07,0,0,1,8.26-2.5C198.17,69.75,185.19,71.06,187.2,70.88Z" style="fill:#fff"/><path d="M189.33,118.61a25.22,25.22,0,0,1-11.6-47.52,24.8,24.8,0,0,1,9.1-2.77h0l.63-.07.85-.1a75.16,75.16,0,0,0,31.81-10.94c4.87-3.09,16.31-11.54,17.44-23.12.46-4.66-.86-10.22-3.7-15.64a34.86,34.86,0,0,0-4.75-6.91,21.28,21.28,0,0,0-2.51-2.48c-.28-.23-.59-.44-.91-.66a10.82,10.82,0,0,1-2.84-2.57c-1.26-1.81-1-3.19-.57-4A3.59,3.59,0,0,1,225.74,0a17.78,17.78,0,0,1,4.75.92,39.73,39.73,0,0,1,8.3,3.74,45.24,45.24,0,0,1,12.63,11.11c15.65,19.83,10.21,46.75-2.12,64.63a94.6,94.6,0,0,1-23,23,96.35,96.35,0,0,1-16.13,9.45c-6.93,3.16-12.9,5-18.26,5.57A22.71,22.71,0,0,1,189.33,118.61Zm-1.88-45.16a19.53,19.53,0,0,0-7.3,2.21,20.05,20.05,0,0,0,9.18,37.78,19.76,19.76,0,0,0,2-.11c4.81-.53,10.27-2.21,16.69-5.14a91.84,91.84,0,0,0,15.26-9A88.84,88.84,0,0,0,245,77.47c11.26-16.32,16.34-40.74,2.32-58.5a40.07,40.07,0,0,0-11.2-9.86A35.4,35.4,0,0,0,231.91,7c.34.36.7.74,1.07,1.16a40,40,0,0,1,5.46,7.94c3.3,6.31,4.82,12.89,4.27,18.54-1.35,13.84-14.31,23.48-19.81,27a79.18,79.18,0,0,1-30.41,11.22,5.24,5.24,0,0,1-.62.17v0l-.45,0-.47.06-3.39.35h-.11Z" style="fill:#333
"/><path d="M196.48,92.31c9-1.15,2.54-.34.4-.06,12.57-1.66,24.62-7.93,35.33-16.33,9.12-7.16,17.44-19.6,18.59-30.91.76-7.49.13-15.56-3.08-22-3-6-7.54-11.9-16.91-17.15-1.37-.77,9.65-.41,19.11,11.47,14.54,18.26,10.26,43.46-2.23,61.57a92.29,92.29,0,0,1-22.34,22.4,94.58,94.58,0,0,1-15.7,9.2C204.22,113,193.47,92.65,196.48,92.31Z" style="fill:#333
"/><path d="M196.88,92.25l-.4.06C196,92.36,196.29,92.32,196.88,92.25Z" style="fill:#333
"/><path d="M73.84,70.88A78.71,78.71,0,0,1,39.53,59.39c-8.71-5.54-17.59-14.45-18.62-25-.57-5.81,1.31-12,4-17.09A37.44,37.44,0,0,1,30,9.82a24.52,24.52,0,0,1,2.81-2.77c1-.83,2.49-1.59,3.26-2.7,2.12-3-3.66-1.3-4.75-1a37.55,37.55,0,0,0-7.76,3.49A43.3,43.3,0,0,0,11.65,17.37C-2.81,35.7,1.38,60.83,13.87,78.94a92.16,92.16,0,0,0,22.35,22.4,94.09,94.09,0,0,0,15.69,9.2c5.43,2.48,11.5,4.7,17.47,5.35,11.23,1.24,21.73-6.64,24.23-17.54a22.85,22.85,0,0,0-11.51-25,22.07,22.07,0,0,0-8.26-2.5C62.87,69.75,75.85,71.06,73.84,70.88Z" style="fill:#fff"/><path d="M71.71,118.61h0a22.71,22.71,0,0,1-2.61-.15c-5.36-.59-11.33-2.41-18.26-5.57a97,97,0,0,1-16.13-9.45,94.6,94.6,0,0,1-23-23C-.59,62.52-6,35.6,9.62,15.77A45.24,45.24,0,0,1,22.25,4.66,39.73,39.73,0,0,1,30.55.92,17.78,17.78,0,0,1,35.3,0a3.59,3.59,0,0,1,3.46,1.8c.44.84.69,2.21-.57,4a10.43,10.43,0,0,1-2.84,2.56c-.32.23-.63.44-.91.67a20.53,20.53,0,0,0-2.51,2.48,34.86,34.86,0,0,0-4.75,6.91c-2.84,5.43-4.16,11-3.7,15.64,1.13,11.58,12.57,20,17.44,23.12A75.3,75.3,0,0,0,72.74,68.16l.86.09.5.06a24.58,24.58,0,0,1,9.21,2.78,25.22,25.22,0,0,1-11.6,47.52ZM29.13,7a35.4,35.4,0,0,0-4.25,2.16A40.24,40.24,0,0,0,13.67,19C-.34,36.73,4.74,61.15,16,77.47A89,89,0,0,0,37.72,99.23a91.44,91.44,0,0,0,15.26,9c6.42,2.93,11.88,4.61,16.69,5.14a19.76,19.76,0,0,0,2,.11,20.05,20.05,0,0,0,9.18-37.78,19.41,19.41,0,0,0-7.29-2.21h-.11l-3.4-.35L69.62,73l-.45,0v0a5.24,5.24,0,0,1-.62-.17A79.18,79.18,0,0,1,38.14,61.57c-5.5-3.5-18.46-13.14-19.81-27-.55-5.65,1-12.24,4.27-18.55a40,40,0,0,1,5.46-7.94C28.43,7.69,28.79,7.31,29.13,7Z" style="fill:#333
"/><path d="M65.08,92.31c-9-1.15-2.54-.34-.39-.06-12.58-1.66-24.63-7.93-35.33-16.33C20.24,68.76,11.91,56.32,10.76,45c-.75-7.49-.13-15.56,3.08-22,3-6,7.55-11.9,16.92-17.15,1.37-.77-9.66-.41-19.11,11.47C-2.89,35.63,1.38,60.83,13.87,78.94a92.16,92.16,0,0,0,22.35,22.4,94.09,94.09,0,0,0,15.69,9.2C57.34,113,68.09,92.65,65.08,92.31Z" style="fill:#333
"/><path d="M64.69,92.25l.39.06C65.53,92.36,65.27,92.32,64.69,92.25Z" style="fill:#333
"/><path d="M65.76,90.74l.4.06C66.61,90.85,66.35,90.82,65.76,90.74Z" style="fill:#333
"/><path d="M207.91,112.91c-4.42-11.77-13.08-27.7-21.29-37.39-2.39-2.83-2.29-5.19,2.4-8.32,3.08-2,7-1.94,9.49.82a117.18,117.18,0,0,1,21.63,36.74c1.2,3.49-.69,6.81-4,8.59C211.89,115.68,208.92,115.6,207.91,112.91Z" style="fill:#fff"/><path d="M211,117.6a5.65,5.65,0,0,1-5.55-3.78c-4-10.74-12.49-26.77-20.84-36.63-1.68-2-2.37-3.88-2.1-5.79.42-3,3.07-5,5-6.35a10.63,10.63,0,0,1,5.91-1.85,9.18,9.18,0,0,1,6.93,3.09,119.27,119.27,0,0,1,22.15,37.63c1.54,4.48-.53,9.18-5.17,11.7A13.75,13.75,0,0,1,211,117.6ZM193.5,68.37a5.48,5.48,0,0,0-3,1c-2.46,1.64-2.76,2.54-2.79,2.77s.29,1,.92,1.73c9.14,10.79,17.68,27.34,21.74,38.15.12.32.16.43.71.43a8.7,8.7,0,0,0,3.9-1.35c1.89-1,3.61-3,2.75-5.48a115.49,115.49,0,0,0-21.1-35.86A4.06,4.06,0,0,0,193.5,68.37Z" style="fill:#333
"/><path d="M53.13,113.3c4.42-11.78,13.08-27.7,21.29-37.39,2.39-2.83,2.29-5.19-2.4-8.32-3.08-2.06-7-1.94-9.49.81A117.22,117.22,0,0,0,40.9,105.15c-1.2,3.49.69,6.81,4,8.59C49.15,116.07,52.12,116,53.13,113.3Z" style="fill:#fff"/><path d="M50,118h0a13.87,13.87,0,0,1-6.37-2c-4.64-2.52-6.71-7.23-5.17-11.71A119.12,119.12,0,0,1,60.61,66.68a9.18,9.18,0,0,1,6.93-3.09,10.63,10.63,0,0,1,5.91,1.85c2,1.31,4.62,3.39,5,6.35.27,1.91-.42,3.8-2.1,5.79C68,87.44,59.58,103.47,55.55,114.21A5.65,5.65,0,0,1,50,118ZM67.54,68.76a4.06,4.06,0,0,0-3.09,1.37A115.26,115.26,0,0,0,43.35,106c-.86,2.47.86,4.45,2.75,5.48a8.84,8.84,0,0,0,3.9,1.35h0c.55,0,.59-.12.71-.43C54.77,101.58,63.31,85,72.45,74.24a2.92,2.92,0,0,0,.92-1.73c0-.24-.33-1.14-2.79-2.77A5.48,5.48,0,0,0,67.54,68.76Z" style="fill:#333
"/><path d="M130.52,145.07c31.43,0,60.94,3.71,86.55,10.23.05-1.53.09-3.06.09-4.6,0-58.72-48.95-110-86.64-110S43.88,92,43.88,150.7c0,1.54,0,3.07.09,4.6C69.58,148.78,99.09,145.07,130.52,145.07Z" style="fill:#fff"/><path d="M44,157.88a2.59,2.59,0,0,1-2.58-2.49c0-1.56-.1-3.12-.1-4.69,0-59.59,49.9-112.62,89.23-112.62s89.22,53,89.22,112.62c0,1.57,0,3.13-.09,4.69a2.59,2.59,0,0,1-3.22,2.41c-26.11-6.64-55.81-10.15-85.91-10.15s-59.8,3.51-85.91,10.15A2.74,2.74,0,0,1,44,157.88ZM130.52,43.25c-37.05,0-84.06,50.59-84.06,107.45,0,.44,0,.88,0,1.31,25.75-6.24,54.73-9.53,84.05-9.53s58.3,3.29,84,9.53c0-.43,0-.87,0-1.31C214.58,93.84,167.57,43.25,130.52,43.25Z" style="fill:#333"/><path d="M116.28,45.51C92.56,42.69,43.88,99,43.88,150.7c0,1.54,0,3.07.09,4.6,11.29-2.88,54.51-4.1,56.81-19.78-4.64-2.86-17.7-5.6-21.58-14.48-2.31-5.27-2.55-13.4-1.66-20.69C80.09,79.38,99.39,52.23,116.28,45.51Z" style="fill:#333
"/><path d="M145.28,45.51C169,42.69,217.68,99,217.68,150.7c0,1.54,0,3.07-.09,4.6-11.29-2.88-54.5-4.1-56.81-19.78,4.65-2.86,17.71-5.6,21.59-14.48,2.3-5.27,2.55-13.4,1.66-20.69C181.47,79.38,162.17,52.23,145.28,45.51Z" style="fill:#333
"/><polygon points="147.61 185.1 130.91 204.7 113.43 185.1 116.05 155.46 145.06 155.46 147.61 185.1" style="fill:#fff"/><path d="M131,208.63,110.75,186l2.94-33.11h33.74L150.28,186ZM116.1,184.21l14.76,16.56,14.08-16.52-2.26-26.2H118.42Z" style="fill:#333
"/><path d="M216.27,141.48A293.27,293.27,0,0,0,148,129.71L141.8,38.58c-.27-4.31-5.69-7-11.28-7s-10.8,3.36-11.28,7l-6.18,91.18a291,291,0,0,0-67.83,11.51s-7,1-6.1,14.2c.74,11,6.82,11.62,6.82,11.62a289.26,289.26,0,0,1,84.79-12.16,289.14,289.14,0,0,1,84.78,12.16s5.76-.14,6.43-12.5C222.53,143.72,216.27,141.48,216.27,141.48Z" style="fill:#fff"/><path d="M46.2,169.71l-.52-.06c-.33,0-8.26-1-9.13-14-.94-14.06,6.48-16.52,8-16.88a292.6,292.6,0,0,1,66.05-11.45l6-88.91c.68-5.17,7-9.39,13.86-9.39,6.43,0,13.47,3.29,13.86,9.4l6,88.84A295.38,295.38,0,0,1,217,139c.46.15,8.2,3.07,7.52,15.72-.78,14.34-8.12,14.92-8.95,14.94h-.41l-.4-.12a286.09,286.09,0,0,0-84-12.05,286.16,286.16,0,0,0-84,12.05Zm84.54-17.37a291.49,291.49,0,0,1,84.87,12.07c.85-.38,3.33-2.14,3.76-10,.44-8.2-3.44-10.29-4-10.53a290.77,290.77,0,0,0-67.56-11.63l-2.29-.12-6.33-93.41c-.16-2.49-4.14-4.58-8.7-4.58s-8.47,2.83-8.72,4.74l-6.32,93.3-2.28.12A288.83,288.83,0,0,0,46,143.74l-.36.09c-.12,0-4.6,1.13-3.91,11.47.47,7,3.21,8.71,4.18,9.11A291.31,291.31,0,0,1,130.74,152.34Z" style="fill:#333
"/><path d="M110.83,186.07a39.86,39.86,0,0,0-5.56,1.34,34,34,0,0,0-9.6,5,29.42,29.42,0,0,0-8.57,10.39,32.67,32.67,0,0,1,3.67-15.9,31.89,31.89,0,0,1,3.16-4.48l-.6-.16v0c-5.76-.16-13,1.41-17.38,5.35a40,40,0,0,1-1.81-9.57c-4.74,1.94-12.49,8.18-15,12.37-2-4.09-3-16.32-1.83-23.88h-.06a60.54,60.54,0,0,0,1.6,41.53,49.18,49.18,0,0,1,10-18.33,73.68,73.68,0,0,0,3.8,13,26.82,26.82,0,0,1,8.57-10.38c-1.78,10.38-1.56,20.86,1.67,29,9.66-22.61,26.27-27.25,26.27-27.25a45.76,45.76,0,0,0-2.87,9.31,29.81,29.81,0,0,1,15.71-4.86Z" style="fill:#fff"/><path d="M202.58,190.48c-2.46-4.19-9.64-10.43-14.37-12.37a40.62,40.62,0,0,1-1.81,9.57c-4.38-3.94-11.62-5.51-17.38-5.35a6,6,0,0,0-.59.12,28.44,28.44,0,0,1,6.83,20.38,29.42,29.42,0,0,0-8.57-10.39,33.94,33.94,0,0,0-9.61-5,45.51,45.51,0,0,0-6.81-1.57V186l-10.86,12.74a29.79,29.79,0,0,1,15.44,4.86,45.76,45.76,0,0,0-2.87-9.31s16.61,4.64,26.27,27.25c3.23-8.18,3.45-18.66,1.67-29a26.82,26.82,0,0,1,8.57,10.38,73.68,73.68,0,0,0,3.8-13,49.18,49.18,0,0,1,10,18.33,60.27,60.27,0,0,0,2.41-38.69C205.34,176.91,204.38,186.86,202.58,190.48Z" style="fill:#fff"/><path d="M202.58,190.48c-2.46-4.19-9.64-10.43-14.37-12.37a40.62,40.62,0,0,1-1.81,9.57c-7.76-6.07-17.77-5.28-18-5.23a28.44,28.44,0,0,1,6.83,20.38,29.42,29.42,0,0,0-8.57-10.39,33.94,33.94,0,0,0-9.61-5,45.51,45.51,0,0,0-6.81-1.57V186l-10.86,12.74a29.79,29.79,0,0,1,15.44,4.86,45.76,45.76,0,0,0-2.87-9.31s16.61,4.64,26.27,27.25c3.23-8.18,3.45-18.66,1.67-29a26.82,26.82,0,0,1,8.57,10.38,73.68,73.68,0,0,0,3.8-13,49.18,49.18,0,0,1,10,18.33,60.27,60.27,0,0,0,2.41-38.69C205.34,176.91,204.38,186.86,202.58,190.48Z" style="fill:#fff"/><path d="M47,153.43c-.35-6.74.67-10.78,1.93-13.18-1.22.34-2.46.66-3.67,1,0,0-7,1-6.1,14.2.74,11,6.82,11.62,6.82,11.62,1.63-.5,3.29-.93,4.93-1.4C49.27,164.09,47.35,160.68,47,153.43Z" style="fill:#404041"/><path d="M216.27,141.48c-1.45-.44-2.92-.86-4.39-1.27,1.3,2.29,2.48,6.06,2.22,12.19-.33,8-2.07,11.61-3.57,13.27,1.66.47,3.34.92,5,1.42,0,0,5.76-.14,6.43-12.5C222.53,143.72,216.27,141.48,216.27,141.48Z" style="fill:#404041"/><polygon points="130.52 165.96 128.9 156.4 132.34 156.4 130.52 165.96" style="fill:#333
"/><polygon points="135.25 165.96 133.63 156.4 137.07 156.4 135.25 165.96" style="fill:#333
"/><polygon points="139.77 165.96 138.14 156.4 141.59 156.4 139.77 165.96" style="fill:#333
"/><polygon points="126.34 165.96 127.96 156.4 124.52 156.4 126.34 165.96" style="fill:#333
"/><polygon points="121.82 165.96 123.45 156.4 120 156.4 121.82 165.96" style="fill:#333
"/><polygon points="132.63 180.06 130.91 202.84 129.18 180.06 132.63 180.06" style="fill:#333
"/><polygon points="113.52 127.22 126.26 131.91 112.6 132.31 113.52 127.22" style="fill:#333
"/><polygon points="148.07 132.31 134.41 131.9 147.15 127.22 148.07 132.31" style="fill:#333
"/><path d="M64.2,161.12c-6-2.37-9.94-10.68-1.92-24.31-6.67,1.46-10.77,2.58-17.05,4.46,0,0-7,1-6.1,14.2.74,11,6.82,11.62,6.82,11.62q9.11-2.76,18.6-4.93C64.53,161.7,64.49,161.23,64.2,161.12Z" style="fill:#333
"/><polygon points="113.14 125.85 99.39 123.91 112.5 119.34 113.14 125.85" style="fill:#333
"/><polygon points="113.88 118.38 100.44 116.7 113.1 111.88 113.88 118.38" style="fill:#333
"/><polygon points="114.63 110.91 101.48 109.49 113.7 104.42 114.63 110.91" style="fill:#333
"/><polygon points="115.38 103.43 102.52 102.28 114.29 96.97 115.38 103.43" style="fill:#333
"/><polygon points="116.13 95.95 103.57 95.06 114.88 89.52 116.13 95.95" style="fill:#333
"/><polygon points="116.89 88.46 104.61 87.85 115.46 82.07 116.89 88.46" style="fill:#333
"/><polygon points="117.65 80.98 105.65 80.64 116.04 74.63 117.65 80.98" style="fill:#333
"/><polygon points="118.42 73.48 106.7 73.43 116.62 67.19 118.42 73.48" style="fill:#333
"/><polygon points="119.19 65.99 107.74 66.22 117.19 59.75 119.19 65.99" style="fill:#333
"/><polygon points="119.96 58.49 108.78 59.01 117.76 52.32 119.96 58.49" style="fill:#333
"/><polygon points="120.74 50.98 109.83 51.8 118.33 44.9 120.74 50.98" style="fill:#333
"/><polygon points="149 119.34 162.11 123.91 148.36 125.85 149 119.34" style="fill:#333
"/><polygon points="148.4 111.88 161.07 116.7 147.62 118.38 148.4 111.88" style="fill:#333
"/><polygon points="147.81 104.42 160.02 109.49 146.87 110.91 147.81 104.42" style="fill:#333
"/><polygon points="147.21 96.97 158.98 102.28 146.12 103.43 147.21 96.97" style="fill:#333
"/><polygon points="146.63 89.52 157.94 95.06 145.37 95.95 146.63 89.52" style="fill:#333
"/><polygon points="146.04 82.07 156.89 87.85 144.61 88.46 146.04 82.07" style="fill:#333
"/><polygon points="145.46 74.63 155.85 80.64 143.85 80.98 145.46 74.63" style="fill:#333
"/><polygon points="144.88 67.19 154.81 73.43 143.08 73.48 144.88 67.19" style="fill:#333
"/><polygon points="144.31 59.75 153.76 66.22 142.31 65.99 144.31 59.75" style="fill:#333
"/><polygon points="143.74 52.32 152.72 59.01 141.54 58.49 143.74 52.32" style="fill:#333
"/><polygon points="143.18 44.9 151.68 51.8 140.76 50.98 143.18 44.9" style="fill:#333
"/><path d="M45.65,95.11c-2.24,4.38-3.34,5.94-4.75,10-1.2,3.49.69,6.81,4,8.59,4.29,2.33,7.26,2.24,8.27-.44a95.89,95.89,0,0,1,5.12-11.67C51.8,101.9,46.81,99.34,45.65,95.11Z" style="fill:#333
"/><path d="M197.36,161.12c5.95-2.37,9.94-10.68,1.93-24.31,6.66,1.46,10.76,2.58,17,4.46,0,0,7,1,6.1,14.2-.73,11-6.82,11.62-6.82,11.62q-9.11-2.76-18.6-4.93C197,161.7,197.08,161.23,197.36,161.12Z" style="fill:#333
"/><path d="M215.91,95.11c2.24,4.38,3.34,5.94,4.75,10,1.2,3.49-.69,6.81-4,8.59-4.28,2.33-7.25,2.24-8.26-.44a97.64,97.64,0,0,0-5.13-11.67C209.76,101.9,214.76,99.34,215.91,95.11Z" style="fill:#333
"/><path d="M92.75,58.15a169.42,169.42,0,0,0-20,24.35,154.47,154.47,0,0,0-15.71,31.21c-1.88,5.14-3.37,10.37-5,15.6a109.29,109.29,0,0,1,28.3-60.2A89.64,89.64,0,0,1,92.75,58.15Z" style="fill:#fff"/><path d="M209.76,130.11c-2.88-9.53-5.83-18.9-10.07-27.94a163.17,163.17,0,0,0-17.83-29.34c-3.11-4.1-6.57-7.86-10-11.71,16.91,13.41,29.22,33,34.91,53.78A103.49,103.49,0,0,1,209.76,130.11Z" style="fill:#fff"/><path d="M45,143.78c-1.09,6.92.54,16.28,1.54,19.28-3.31-1.44-4.33-6.11-4.48-9.33C41.87,150.27,42.61,146.43,45,143.78Z" style="fill:#fff"/><path d="M216.4,144.12c2.36,2.64,3.09,6.49,2.94,9.94-.15,3.25-1.18,7.87-4.48,9.34C215.86,160.4,217.16,150.7,216.4,144.12Z" style="fill:#fff"/><path d="M5.92,32.6A56.54,56.54,0,0,0,9.84,61.84c4,9.85,10.75,18.3,18.14,25.84,3.15,3.21,6.49,6.23,9.82,9.24C20.06,87.12,6.13,68.67,4.42,48.14A45.75,45.75,0,0,1,5.92,32.6Z" style="fill:#fff"/><path d="M255.07,32.6c5.44,20.63-4.26,42-19.71,55.71a67.29,67.29,0,0,1-12.17,8.61C237.93,83.6,252,68.51,255.07,48.06A54.47,54.47,0,0,0,255.07,32.6Z" style="fill:#fff"/><path d="M106.56,171.73c5.18-1.1,3.17-5.3,2-6.13-4.7-3.45-12.71-.35-19.44-.85a67.07,67.07,0,0,1-9.7-1.44c1.57,3,4.21,5.06,8,6.59C93.6,172.42,100,172.61,106.56,171.73Z" style="fill:#fff"/><path d="M154.85,171.73c-5.18-1.1-3.17-5.3-2-6.13,4.7-3.45,12.71-.35,19.44-.85a67.07,67.07,0,0,0,9.7-1.44c-1.57,3-4.21,5.06-7.95,6.59C167.81,172.42,161.38,172.61,154.85,171.73Z" style="fill:#fff"/><path d="M219.14,267.22c4.68,7.43,6.52,15.38,10.8,23-2.06-9.36-1.52-18.89-4.25-28.09s-7.53-17.42-13.12-25.19c5.3-10.29,6.73-30.13,3.69-42.19-2.75,23.91-11,36.05-18.47,39.56a46.45,46.45,0,0,1-3.3-17.59C190.94,223,190.05,228.37,191,242c1,13.9,8,18.39,7.32,42-3.56-6.6-13.75-22.76-17.2-35.39-5.2-19.1-16.71-30-25.53-34.25-11.52-5.57-19.47-4.51-20.51,3.63-1.32,10.26,10.51,6.72,20.51,12.24,7.37,4.08,15.77,12.92,16.34,31.3-6.48-17.8-17.51-25.2-27-25.84,7.33,4.52,9.16,19.09,8.19,21.1-5-12.77-15.51-15.22-21.93-15.22s-16.9,2.45-21.93,15.22c-1-2,.86-16.58,8.19-21.1-9.48.64-20.51,8-27,25.84.58-18.38,9-27.22,16.35-31.3,10-5.52,21.83-2,20.51-12.24-1-8.14-9-9.2-20.51-3.63-8.82,4.26-20.33,15.15-25.53,34.25-3.45,12.63-13.64,28.79-17.2,35.39-.71-23.6,6.37-28.09,7.32-42,.93-13.66,0-19-3.51-25.27a46.15,46.15,0,0,1-3.31,17.59c-7.45-3.51-17.93-15.65-20.68-39.56-2.43,18.29.6,31.9,5.91,42.19-5.59,7.77-10.36,15.86-13.12,25.19s-2.19,18.88-4.25,28.24c4.28-7.66,6.11-15.76,10.8-23.19a68.38,68.38,0,0,1,14.3-15.93c-9.62,27-6.49,46.11-.66,66.47,7.18-13.82,16.4-33.23,26.08-39.84-1.47,10.85-.9,36.61,6,57.28C94.46,290.41,117.5,271,117.5,271s-7.17,15.07-8,36.8c-1.79,44.74,12.9,45,21.06,78.2,13.75-17,18.82-39.6,21.66-62.74,3.73-30.44-7.32-52.26-7.32-52.26s22.48,18.09,28.61,64.17c6.85-20.67,7.42-46.43,5.95-57.28,9.67,6.61,18.9,26,26.08,39.84,5.82-20.36,9-39.52-.66-66.47A68.38,68.38,0,0,1,219.14,267.22ZM99.9,273.81c-1.75,3.65-3.62,7.25-5.41,10.88-1.36,2.78-2.58,5.71-4.19,8.36-1.29-7,.57-14.08,3.54-20.39,1.59-3.39,3.53-6.59,5.28-9.9,1.56-2.92,2.62-6,3.92-9C105.38,260.6,102.87,267.58,99.9,273.81Zm37,40.74c-.76,7.78-1.16,15.57-1.4,23.39-.22,6.89,0,13.88-.85,20.74a79.16,79.16,0,0,1-11.15-37.82,167.81,167.81,0,0,1,1.32-24c.86-7.62,1.46-15.26,2-22.91.47-7,.67-14.08,1.84-21,6.3,11.58,9.3,25,9.67,38.1C138.52,298.9,137.66,306.73,136.89,314.55Zm35.42-21.5c-1.6-2.65-2.82-5.58-4.18-8.36-1.79-3.63-3.66-7.23-5.41-10.88-3-6.23-5.49-13.21-3.14-20.07,1.3,3,2.36,6.1,3.91,9,1.75,3.31,3.7,6.51,5.29,9.9C171.75,279,173.61,286.07,172.31,293.05Z" style="fill:#fff"/><ellipse cx="130.86" cy="107.66" rx="4.54" ry="3.37" style="fill:#333
"/><path d="M135.35,137.93c0,1.48-1.86,2.68-4.15,2.68s-4.15-1.2-4.15-2.68,1.86-2.68,4.15-2.68S135.35,136.45,135.35,137.93Z" style="fill:#333
"/><path d="M134.41,170.8c0,1.23-1.55,2.24-3.47,2.24s-3.47-1-3.47-2.24,1.55-2.24,3.47-2.24S134.41,169.56,134.41,170.8Z" style="fill:#333
"/><path d="M102.31,140.57c0,1-1.31,1.8-2.92,1.8s-2.91-.81-2.91-1.8,1.3-1.8,2.91-1.8S102.31,139.57,102.31,140.57Z" style="fill:#333
"/><ellipse cx="74.09" cy="143.96" rx="2.63" ry="1.59" style="fill:#333
"/><path d="M159.22,140.57c0,1,1.3,1.8,2.91,1.8s2.92-.81,2.92-1.8-1.31-1.8-2.92-1.8S159.22,139.57,159.22,140.57Z" style="fill:#333
"/><ellipse cx="187.43" cy="143.96" rx="2.63" ry="1.59" style="fill:#333
"/><ellipse cx="130.86" cy="83.66" rx="3.68" ry="2.68" style="fill:#333
"/><ellipse cx="130.86" cy="60.84" rx="2.67" ry="1.92" style="fill:#333
"/><path d="M132.84,41.82c0,.79-.89,1.43-2,1.43s-2-.64-2-1.43.89-1.43,2-1.43S132.84,41,132.84,41.82Z" style="fill:#333
"/><path d="M130.86,43.94c-2.12,0-3.06-1.89-3.15-1.76a2.3,2.3,0,0,0-.44,1.33c0,1.56,1.61,2.83,3.59,2.83s3.58-1.27,3.58-2.83a2.77,2.77,0,0,0-.42-1.43C133.93,41.93,133,43.94,130.86,43.94Z" style="fill:#fff"/><path d="M137.38,106.25c3,1.92,3.45,6.25,2.1,9.26a9.41,9.41,0,0,1-17,.24c-1.39-3-1.1-7.24,1.79-9.26-.84,4.52,1.84,9.28,6.76,9.35h-.12C135.91,115.76,138.39,110.66,137.38,106.25Z" style="fill:#333
"/><path d="M137,137.19c5.4,4.53.17,12.72-5.92,12.6-5.87-.11-10.82-7.85-5.8-12.38-1.24,4.22,1.51,9.22,6.29,8.92C136.1,146,138.28,141.19,137,137.19Z" style="fill:#333
"/><path d="M103.73,140c1.91,1.29,2.29,4,1.48,6a6.31,6.31,0,0,1-5.94,3.85c-4.46-.09-8.78-6.46-4.32-9.71-.56,3.05,1.36,6.52,4.79,6.25C102.92,146.19,104.38,142.86,103.73,140Z" style="fill:#333
"/><path d="M77.69,145.8a4.52,4.52,0,0,1-.28,5.23,5.77,5.77,0,0,1-6.7,1.79c-3.79-1.54-5.45-8.59-.44-9.73-1.22,2.13-1,5.17,1.4,6.39C74.46,150.89,77.21,148.52,77.69,145.8Z" style="fill:#333
"/><path d="M157.77,140c-.63,2.82.8,6.15,4,6.41,3.42.27,5.37-3.2,4.79-6.25,4.46,3.25.14,9.62-4.32,9.71a6.29,6.29,0,0,1-5.93-3.85C155.49,144.05,155.87,141.33,157.77,140Z" style="fill:#333
"/><path d="M183.81,145.8c.49,2.72,3.24,5.09,6,3.68,2.39-1.22,2.62-4.26,1.4-6.39,5,1.14,3.35,8.19-.45,9.73A5.76,5.76,0,0,1,184.1,151,4.5,4.5,0,0,1,183.81,145.8Z" style="fill:#333
"/><path d="M136.4,169.74c5.36,4.19.08,12.21-5.67,12-5.56-.16-10.32-7.56-5.45-11.83-1.1,4,1.5,8.67,6,8.37C135.55,178,137.56,173.49,136.4,169.74Z" style="fill:#333
"/><path d="M136.22,83c2.42,1.56,2.83,5.06,1.78,7.53a7.75,7.75,0,0,1-13.84.67c-1.34-2.48-1.22-6.27,1.3-8-.64,3.67,1.51,7.61,5.55,7.65h-.1C135,90.78,137,86.67,136.22,83Z" style="fill:#333
"/><path d="M134.76,60.11A4.47,4.47,0,0,1,136.38,65a5.71,5.71,0,0,1-5.51,4c-4.07,0-8.17-6-3.91-8.83-.35,2.46,1,5.27,3.78,5.37C133.7,65.74,135.24,62.73,134.76,60.11Z" style="fill:#333
"/><path d="M134,42.08a3.68,3.68,0,0,1,1.4,4.51,4.84,4.84,0,0,1-4.55,3.07c-3.43,0-7-5.27-3.16-7.46-.13,2.23,1.58,4.63,4,3.88A3.59,3.59,0,0,0,134,42.08Z" style="fill:#333
"/></g></g></svg>