<svg width="33" height="36" viewBox="0 0 33 36" fill="none" xmlns="http://www.w3.org/2000/svg">
<path fill-rule="evenodd" clip-rule="evenodd" d="M10.8922 16.68C9.48909 16.68 8.35161 15.3846 8.35161 13.7867C8.35161 12.1887 9.48909 10.8933 10.8922 10.8933C12.2954 10.8933 13.4329 12.1887 13.4329 13.7867C13.4329 15.3846 12.2954 16.68 10.8922 16.68ZM10.8922 19.5733C8.08593 19.5733 5.81097 16.9826 5.81097 13.7867C5.81097 10.5908 8.08593 8 10.8922 8C13.6985 8 15.9735 10.5908 15.9735 13.7867C15.9735 16.9826 13.6985 19.5733 10.8922 19.5733Z" fill="#333333"/>
<path fill-rule="evenodd" clip-rule="evenodd" d="M10.8922 23.9133C14.4001 23.9133 17.2438 27.1518 17.2438 31.1467C17.2438 31.9456 17.8125 32.5933 18.5141 32.5933C19.2157 32.5933 19.7844 31.9456 19.7844 31.1467C19.7844 25.5538 15.8032 21.02 10.8922 21.02C5.98115 21.02 1.99998 25.5538 1.99998 31.1467C1.99998 31.9456 2.5687 32.5933 3.27029 32.5933C3.97189 32.5933 4.54061 31.9456 4.54061 31.1467C4.54061 27.1518 7.38432 23.9133 10.8922 23.9133Z" fill="#333333"/>
<circle cx="7" cy="26.7549" r="7" fill="#333333"/>
<circle cx="7" cy="26.7549" r="5" fill="white"/>
<g filter="url(#filter0_dd_11_95)">
<ellipse rx="5.02953" ry="2.93829" transform="matrix(-0.99985 0.0173425 0.050186 0.99874 11.1762 7.84737)" fill="#333333"/>
<path d="M6.64739 7.92593C6.6755 8.48532 7.09772 9.0769 7.95514 9.54856C8.80007 10.0133 9.98268 10.3054 11.2986 10.2826C12.6145 10.2598 13.7658 9.92721 14.5625 9.43396C15.3711 8.9334 15.7332 8.32821 15.7051 7.76882C15.677 7.20943 15.2548 6.61784 14.3973 6.14618C13.5524 5.6814 12.3698 5.38933 11.0539 5.41216C9.73794 5.43498 8.58672 5.76753 7.78994 6.26079C6.98136 6.76135 6.61928 7.36653 6.64739 7.92593Z" stroke="black"/>
<path d="M6.64739 7.92593C6.6755 8.48532 7.09772 9.0769 7.95514 9.54856C8.80007 10.0133 9.98268 10.3054 11.2986 10.2826C12.6145 10.2598 13.7658 9.92721 14.5625 9.43396C15.3711 8.9334 15.7332 8.32821 15.7051 7.76882C15.677 7.20943 15.2548 6.61784 14.3973 6.14618C13.5524 5.6814 12.3698 5.38933 11.0539 5.41216C9.73794 5.43498 8.58672 5.76753 7.78994 6.26079C6.98136 6.76135 6.61928 7.36653 6.64739 7.92593Z" stroke="black" stroke-opacity="0.2"/>
</g>
<ellipse rx="4.93636" ry="4.46161" transform="matrix(-0.999969 -0.00786924 0.0142984 0.999898 11 4.5)" fill="white"/>
<path d="M30.9525 16.5745L27.48 22.2496L24.8092 16.0583L30.9525 16.5745Z" fill="#333333"/>
<line y1="-1" x2="23.2296" y2="-1" transform="matrix(0.520605 -0.853798 0.796799 0.604245 14 35.8333)" stroke="#333333" stroke-width="2"/>
<path d="M10.8824 7L13.3785 11.9412H8.38616L10.8824 7Z" fill="#333333"/>
<path d="M11 6L15.3301 12.75H6.66987L11 6Z" fill="#333333"/>
<defs>
<filter id="filter0_dd_11_95" x="2.14526" y="4.91147" width="18.062" height="13.8718" filterUnits="userSpaceOnUse" color-interpolation-filters="sRGB">
<feFlood flood-opacity="0" result="BackgroundImageFix"/>
<feColorMatrix in="SourceAlpha" type="matrix" values="0 0 0 0 0 0 0 0 0 0 0 0 0 0 0 0 0 0 127 0" result="hardAlpha"/>
<feOffset dy="4"/>
<feGaussianBlur stdDeviation="2"/>
<feComposite in2="hardAlpha" operator="out"/>
<feColorMatrix type="matrix" values="0 0 0 0 0 0 0 0 0 0 0 0 0 0 0 0 0 0 0.25 0"/>
<feBlend mode="normal" in2="BackgroundImageFix" result="effect1_dropShadow_11_95"/>
<feColorMatrix in="SourceAlpha" type="matrix" values="0 0 0 0 0 0 0 0 0 0 0 0 0 0 0 0 0 0 127 0" result="hardAlpha"/>
<feOffset dy="4"/>
<feGaussianBlur stdDeviation="2"/>
<feComposite in2="hardAlpha" operator="out"/>
<feColorMatrix type="matrix" values="0 0 0 0 0 0 0 0 0 0 0 0 0 0 0 0 0 0 0.25 0"/>
<feBlend mode="normal" in2="effect1_dropShadow_11_95" result="effect2_dropShadow_11_95"/>
<feBlend mode="normal" in="SourceGraphic" in2="effect2_dropShadow_11_95" result="shape"/>
</filter>
</defs>
</svg>
